solid OpenSCAD_Model
  facet normal 0 0 -1
    outer loop
      vertex -16.5 0 0
      vertex -16.1394 3.43054 0
      vertex -16.1394 -3.43054 0
    endloop
  endfacet
  facet normal 0 0 -1
    outer loop
      vertex -16.1394 -3.43054 0
      vertex -16.1394 3.43054 0
      vertex -15.0735 6.71115 0
    endloop
  endfacet
  facet normal 0 0 -1
    outer loop
      vertex -16.1394 -3.43054 0
      vertex -15.0735 6.71115 0
      vertex -13.3488 9.69846 0
    endloop
  endfacet
  facet normal 0 0 -1
    outer loop
      vertex -16.1394 -3.43054 0
      vertex -13.3488 9.69846 0
      vertex -11.0407 12.2619 0
    endloop
  endfacet
  facet normal 0 0 -1
    outer loop
      vertex -16.1394 -3.43054 0
      vertex -11.0407 12.2619 0
      vertex -8.25 14.2894 0
    endloop
  endfacet
  facet normal 0 0 -1
    outer loop
      vertex -10.1127 7.34732 0
      vertex -8.25 14.2894 0
      vertex -5.09878 15.6924 0
    endloop
  endfacet
  facet normal 0 0 -1
    outer loop
      vertex -6.25 10.8253 0
      vertex -5.09878 15.6924 0
      vertex -1.72472 16.4096 0
    endloop
  endfacet
  facet normal 0 0 -1
    outer loop
      vertex -3.86271 11.8882 0
      vertex -1.72472 16.4096 0
      vertex 1.72472 16.4096 0
    endloop
  endfacet
  facet normal 0 0 -1
    outer loop
      vertex 1.30661 12.4315 0
      vertex 1.72472 16.4096 0
      vertex 5.09878 15.6924 0
    endloop
  endfacet
  facet normal 0 0 -1
    outer loop
      vertex 3.86271 11.8882 0
      vertex 5.09878 15.6924 0
      vertex 8.25 14.2894 0
    endloop
  endfacet
  facet normal 0 0 -1
    outer loop
      vertex 6.25 10.8253 0
      vertex 8.25 14.2894 0
      vertex 11.0407 12.2619 0
    endloop
  endfacet
  facet normal 0 0 -1
    outer loop
      vertex 8.36413 9.28931 0
      vertex 11.0407 12.2619 0
      vertex 13.3488 9.69846 0
    endloop
  endfacet
  facet normal 0 0 -1
    outer loop
      vertex 10.1127 7.34732 0
      vertex 13.3488 9.69846 0
      vertex 15.0735 6.71115 0
    endloop
  endfacet
  facet normal 0 0 -1
    outer loop
      vertex 11.4193 5.08421 0
      vertex 15.0735 6.71115 0
      vertex 16.1394 3.43054 0
    endloop
  endfacet
  facet normal 0 0 -1
    outer loop
      vertex 12.5 0 0
      vertex 16.1394 3.43054 0
      vertex 16.5 0 0
    endloop
  endfacet
  facet normal 0 0 -1
    outer loop
      vertex 12.2268 -2.5989 0
      vertex 16.5 0 0
      vertex 16.1394 -3.43054 0
    endloop
  endfacet
  facet normal 0 0 -1
    outer loop
      vertex 11.4193 -5.08421 0
      vertex 16.1394 -3.43054 0
      vertex 15.0735 -6.71115 0
    endloop
  endfacet
  facet normal 0 0 -1
    outer loop
      vertex 10.1127 -7.34732 0
      vertex 15.0735 -6.71115 0
      vertex 13.3488 -9.69846 0
    endloop
  endfacet
  facet normal 0 0 -1
    outer loop
      vertex 8.36413 -9.28931 0
      vertex 13.3488 -9.69846 0
      vertex 11.0407 -12.2619 0
    endloop
  endfacet
  facet normal 0 0 -1
    outer loop
      vertex 3.86271 -11.8882 0
      vertex 11.0407 -12.2619 0
      vertex 8.25 -14.2894 0
    endloop
  endfacet
  facet normal 0 0 -1
    outer loop
      vertex 1.30661 -12.4315 0
      vertex 8.25 -14.2894 0
      vertex 5.09878 -15.6924 0
    endloop
  endfacet
  facet normal 0 0 -1
    outer loop
      vertex -3.86271 -11.8882 0
      vertex 5.09878 -15.6924 0
      vertex 1.72472 -16.4096 0
    endloop
  endfacet
  facet normal 0 0 -1
    outer loop
      vertex -6.25 -10.8253 0
      vertex 1.72472 -16.4096 0
      vertex -1.72472 -16.4096 0
    endloop
  endfacet
  facet normal 0 0 -1
    outer loop
      vertex -16.1394 -3.43054 0
      vertex -1.72472 -16.4096 0
      vertex -5.09878 -15.6924 0
    endloop
  endfacet
  facet normal 0 0 -1
    outer loop
      vertex -16.1394 -3.43054 0
      vertex -5.09878 -15.6924 0
      vertex -8.25 -14.2894 0
    endloop
  endfacet
  facet normal 0 0 -1
    outer loop
      vertex -16.1394 -3.43054 0
      vertex -8.25 -14.2894 0
      vertex -11.0407 -12.2619 0
    endloop
  endfacet
  facet normal 0 0 -1
    outer loop
      vertex -16.1394 -3.43054 0
      vertex -11.0407 -12.2619 0
      vertex -13.3488 -9.69846 0
    endloop
  endfacet
  facet normal 0 0 -1
    outer loop
      vertex -16.1394 -3.43054 0
      vertex -13.3488 -9.69846 0
      vertex -15.0735 -6.71115 0
    endloop
  endfacet
  facet normal 0 0 -1
    outer loop
      vertex -12.2268 -2.5989 0
      vertex -16.1394 -3.43054 0
      vertex -12.5 0 0
    endloop
  endfacet
  facet normal 0 0 -1
    outer loop
      vertex 11.4193 -5.08421 0
      vertex 15.0735 -6.71115 0
      vertex 10.1127 -7.34732 0
    endloop
  endfacet
  facet normal 0 0 -1
    outer loop
      vertex -11.4193 -5.08421 0
      vertex -16.1394 -3.43054 0
      vertex -12.2268 -2.5989 0
    endloop
  endfacet
  facet normal 0 0 -1
    outer loop
      vertex -10.1127 -7.34732 0
      vertex -16.1394 -3.43054 0
      vertex -11.4193 -5.08421 0
    endloop
  endfacet
  facet normal 0 0 -1
    outer loop
      vertex -8.36413 -9.28931 0
      vertex -16.1394 -3.43054 0
      vertex -10.1127 -7.34732 0
    endloop
  endfacet
  facet normal 0 0 -1
    outer loop
      vertex -3.86271 -11.8882 0
      vertex 1.72472 -16.4096 0
      vertex -6.25 -10.8253 0
    endloop
  endfacet
  facet normal 0 0 -1
    outer loop
      vertex -16.1394 -3.43054 0
      vertex -8.36413 -9.28931 0
      vertex -1.72472 -16.4096 0
    endloop
  endfacet
  facet normal 0 0 -1
    outer loop
      vertex -8.36413 -9.28931 0
      vertex -6.25 -10.8253 0
      vertex -1.72472 -16.4096 0
    endloop
  endfacet
  facet normal 0 0 -1
    outer loop
      vertex -1.30661 -12.4315 0
      vertex 5.09878 -15.6924 0
      vertex -3.86271 -11.8882 0
    endloop
  endfacet
  facet normal 0 0 -1
    outer loop
      vertex 1.30661 -12.4315 0
      vertex 5.09878 -15.6924 0
      vertex -1.30661 -12.4315 0
    endloop
  endfacet
  facet normal 0 0 -1
    outer loop
      vertex 6.25 -10.8253 0
      vertex 11.0407 -12.2619 0
      vertex 3.86271 -11.8882 0
    endloop
  endfacet
  facet normal 0 0 -1
    outer loop
      vertex 8.36413 -9.28931 0
      vertex 11.0407 -12.2619 0
      vertex 6.25 -10.8253 0
    endloop
  endfacet
  facet normal 0 0 -1
    outer loop
      vertex 3.86271 -11.8882 0
      vertex 8.25 -14.2894 0
      vertex 1.30661 -12.4315 0
    endloop
  endfacet
  facet normal 0 0 -1
    outer loop
      vertex 12.2268 2.5989 0
      vertex 16.1394 3.43054 0
      vertex 12.5 0 0
    endloop
  endfacet
  facet normal 0 0 -1
    outer loop
      vertex 10.1127 7.34732 0
      vertex 15.0735 6.71115 0
      vertex 11.4193 5.08421 0
    endloop
  endfacet
  facet normal 0 0 -1
    outer loop
      vertex 11.4193 5.08421 0
      vertex 16.1394 3.43054 0
      vertex 12.2268 2.5989 0
    endloop
  endfacet
  facet normal 0 0 -1
    outer loop
      vertex 12.5 0 0
      vertex 16.5 0 0
      vertex 12.2268 -2.5989 0
    endloop
  endfacet
  facet normal 0 0 -1
    outer loop
      vertex 12.2268 -2.5989 0
      vertex 16.1394 -3.43054 0
      vertex 11.4193 -5.08421 0
    endloop
  endfacet
  facet normal 0 0 -1
    outer loop
      vertex -1.30661 12.4315 0
      vertex 1.72472 16.4096 0
      vertex 1.30661 12.4315 0
    endloop
  endfacet
  facet normal 0 0 -1
    outer loop
      vertex -3.86271 11.8882 0
      vertex 1.72472 16.4096 0
      vertex -1.30661 12.4315 0
    endloop
  endfacet
  facet normal 0 0 -1
    outer loop
      vertex 1.30661 12.4315 0
      vertex 5.09878 15.6924 0
      vertex 3.86271 11.8882 0
    endloop
  endfacet
  facet normal 0 0 -1
    outer loop
      vertex -8.36413 9.28931 0
      vertex -5.09878 15.6924 0
      vertex -6.25 10.8253 0
    endloop
  endfacet
  facet normal 0 0 -1
    outer loop
      vertex -11.4193 5.08421 0
      vertex -8.25 14.2894 0
      vertex -10.1127 7.34732 0
    endloop
  endfacet
  facet normal 0 0 -1
    outer loop
      vertex -12.2268 2.5989 0
      vertex -16.1394 -3.43054 0
      vertex -11.4193 5.08421 0
    endloop
  endfacet
  facet normal 0 0 -1
    outer loop
      vertex -16.1394 -3.43054 0
      vertex -8.25 14.2894 0
      vertex -11.4193 5.08421 0
    endloop
  endfacet
  facet normal 0 0 -1
    outer loop
      vertex 3.86271 11.8882 0
      vertex 8.25 14.2894 0
      vertex 6.25 10.8253 0
    endloop
  endfacet
  facet normal 0 0 -1
    outer loop
      vertex -12.5 0 0
      vertex -16.1394 -3.43054 0
      vertex -12.2268 2.5989 0
    endloop
  endfacet
  facet normal 0 0 -1
    outer loop
      vertex -10.1127 7.34732 0
      vertex -5.09878 15.6924 0
      vertex -8.36413 9.28931 0
    endloop
  endfacet
  facet normal 0 0 -1
    outer loop
      vertex -6.25 10.8253 0
      vertex -1.72472 16.4096 0
      vertex -3.86271 11.8882 0
    endloop
  endfacet
  facet normal 0 0 -1
    outer loop
      vertex 6.25 10.8253 0
      vertex 11.0407 12.2619 0
      vertex 8.36413 9.28931 0
    endloop
  endfacet
  facet normal 0 0 -1
    outer loop
      vertex 8.36413 9.28931 0
      vertex 13.3488 9.69846 0
      vertex 10.1127 7.34732 0
    endloop
  endfacet
  facet normal 0 0 -1
    outer loop
      vertex 10.1127 -7.34732 0
      vertex 13.3488 -9.69846 0
      vertex 8.36413 -9.28931 0
    endloop
  endfacet
  facet normal -0.994522 0.104529 0
    outer loop
      vertex -16.5 0 0
      vertex -16.5 0 3
      vertex -16.1394 3.43054 0
    endloop
  endfacet
  facet normal -0.994522 0.104529 0
    outer loop
      vertex -16.1394 3.43054 0
      vertex -16.5 0 3
      vertex -16.1394 3.43054 3
    endloop
  endfacet
  facet normal -0.994522 -0.104529 0
    outer loop
      vertex -16.5 0 0
      vertex -16.1394 -3.43054 0
      vertex -16.5 0 3
    endloop
  endfacet
  facet normal -0.994522 -0.104529 0
    outer loop
      vertex -16.5 0 3
      vertex -16.1394 -3.43054 0
      vertex -16.1394 -3.43054 3
    endloop
  endfacet
  facet normal -0.951057 -0.309017 0
    outer loop
      vertex -16.1394 -3.43054 0
      vertex -15.0735 -6.71115 0
      vertex -16.1394 -3.43054 3
    endloop
  endfacet
  facet normal -0.951057 -0.309017 0
    outer loop
      vertex -16.1394 -3.43054 3
      vertex -15.0735 -6.71115 0
      vertex -15.0735 -6.71115 3
    endloop
  endfacet
  facet normal -0.866025 -0.5 0
    outer loop
      vertex -15.0735 -6.71115 0
      vertex -13.3488 -9.69846 0
      vertex -15.0735 -6.71115 3
    endloop
  endfacet
  facet normal -0.866025 -0.5 0
    outer loop
      vertex -15.0735 -6.71115 3
      vertex -13.3488 -9.69846 0
      vertex -13.3488 -9.69846 3
    endloop
  endfacet
  facet normal -0.743145 -0.669131 0
    outer loop
      vertex -13.3488 -9.69846 0
      vertex -11.0407 -12.2619 0
      vertex -13.3488 -9.69846 3
    endloop
  endfacet
  facet normal -0.743145 -0.669131 0
    outer loop
      vertex -13.3488 -9.69846 3
      vertex -11.0407 -12.2619 0
      vertex -11.0407 -12.2619 3
    endloop
  endfacet
  facet normal -0.587785 -0.809017 0
    outer loop
      vertex -11.0407 -12.2619 3
      vertex -11.0407 -12.2619 0
      vertex -8.25 -14.2894 0
    endloop
  endfacet
  facet normal -0.587785 -0.809017 0
    outer loop
      vertex -8.25 -14.2894 3
      vertex -11.0407 -12.2619 3
      vertex -8.25 -14.2894 0
    endloop
  endfacet
  facet normal -0.406737 -0.913545 0
    outer loop
      vertex -8.25 -14.2894 3
      vertex -8.25 -14.2894 0
      vertex -5.09878 -15.6924 0
    endloop
  endfacet
  facet normal -0.406737 -0.913545 0
    outer loop
      vertex -5.09878 -15.6924 3
      vertex -8.25 -14.2894 3
      vertex -5.09878 -15.6924 0
    endloop
  endfacet
  facet normal -0.207912 -0.978148 0
    outer loop
      vertex -5.09878 -15.6924 3
      vertex -5.09878 -15.6924 0
      vertex -1.72472 -16.4096 0
    endloop
  endfacet
  facet normal -0.207912 -0.978148 0
    outer loop
      vertex -1.72472 -16.4096 3
      vertex -5.09878 -15.6924 3
      vertex -1.72472 -16.4096 0
    endloop
  endfacet
  facet normal 0 -1 0
    outer loop
      vertex -1.72472 -16.4096 3
      vertex -1.72472 -16.4096 0
      vertex 1.72472 -16.4096 0
    endloop
  endfacet
  facet normal 0 -1 0
    outer loop
      vertex 1.72472 -16.4096 3
      vertex -1.72472 -16.4096 3
      vertex 1.72472 -16.4096 0
    endloop
  endfacet
  facet normal 0.207912 -0.978148 0
    outer loop
      vertex 1.72472 -16.4096 3
      vertex 1.72472 -16.4096 0
      vertex 5.09878 -15.6924 0
    endloop
  endfacet
  facet normal 0.207912 -0.978148 0
    outer loop
      vertex 5.09878 -15.6924 3
      vertex 1.72472 -16.4096 3
      vertex 5.09878 -15.6924 0
    endloop
  endfacet
  facet normal 0.406737 -0.913545 0
    outer loop
      vertex 5.09878 -15.6924 3
      vertex 5.09878 -15.6924 0
      vertex 8.25 -14.2894 0
    endloop
  endfacet
  facet normal 0.406737 -0.913545 0
    outer loop
      vertex 8.25 -14.2894 3
      vertex 5.09878 -15.6924 3
      vertex 8.25 -14.2894 0
    endloop
  endfacet
  facet normal 0.587785 -0.809017 0
    outer loop
      vertex 8.25 -14.2894 3
      vertex 8.25 -14.2894 0
      vertex 11.0407 -12.2619 0
    endloop
  endfacet
  facet normal 0.587785 -0.809017 0
    outer loop
      vertex 11.0407 -12.2619 3
      vertex 8.25 -14.2894 3
      vertex 11.0407 -12.2619 0
    endloop
  endfacet
  facet normal 0.743145 -0.669131 0
    outer loop
      vertex 11.0407 -12.2619 3
      vertex 11.0407 -12.2619 0
      vertex 13.3488 -9.69846 0
    endloop
  endfacet
  facet normal 0.743145 -0.669131 0
    outer loop
      vertex 13.3488 -9.69846 3
      vertex 11.0407 -12.2619 3
      vertex 13.3488 -9.69846 0
    endloop
  endfacet
  facet normal 0.866025 -0.5 0
    outer loop
      vertex 13.3488 -9.69846 3
      vertex 13.3488 -9.69846 0
      vertex 15.0735 -6.71115 0
    endloop
  endfacet
  facet normal 0.866025 -0.5 0
    outer loop
      vertex 15.0735 -6.71115 3
      vertex 13.3488 -9.69846 3
      vertex 15.0735 -6.71115 0
    endloop
  endfacet
  facet normal 0.951057 -0.309017 0
    outer loop
      vertex 15.0735 -6.71115 3
      vertex 15.0735 -6.71115 0
      vertex 16.1394 -3.43054 0
    endloop
  endfacet
  facet normal 0.951057 -0.309017 0
    outer loop
      vertex 16.1394 -3.43054 3
      vertex 15.0735 -6.71115 3
      vertex 16.1394 -3.43054 0
    endloop
  endfacet
  facet normal 0.994522 -0.104529 0
    outer loop
      vertex 16.1394 -3.43054 3
      vertex 16.1394 -3.43054 0
      vertex 16.5 0 0
    endloop
  endfacet
  facet normal 0.994522 -0.104529 0
    outer loop
      vertex 16.5 0 3
      vertex 16.1394 -3.43054 3
      vertex 16.5 0 0
    endloop
  endfacet
  facet normal 0.994522 0.104529 0
    outer loop
      vertex 16.5 0 0
      vertex 16.1394 3.43054 0
      vertex 16.1394 3.43054 3
    endloop
  endfacet
  facet normal 0.994522 0.104529 0
    outer loop
      vertex 16.5 0 3
      vertex 16.5 0 0
      vertex 16.1394 3.43054 3
    endloop
  endfacet
  facet normal 0.951057 0.309017 0
    outer loop
      vertex 16.1394 3.43054 0
      vertex 15.0735 6.71115 0
      vertex 15.0735 6.71115 3
    endloop
  endfacet
  facet normal 0.951057 0.309017 0
    outer loop
      vertex 16.1394 3.43054 3
      vertex 16.1394 3.43054 0
      vertex 15.0735 6.71115 3
    endloop
  endfacet
  facet normal 0.866025 0.5 0
    outer loop
      vertex 15.0735 6.71115 0
      vertex 13.3488 9.69846 0
      vertex 13.3488 9.69846 3
    endloop
  endfacet
  facet normal 0.866025 0.5 0
    outer loop
      vertex 15.0735 6.71115 3
      vertex 15.0735 6.71115 0
      vertex 13.3488 9.69846 3
    endloop
  endfacet
  facet normal 0.743145 0.669131 0
    outer loop
      vertex 13.3488 9.69846 0
      vertex 11.0407 12.2619 0
      vertex 11.0407 12.2619 3
    endloop
  endfacet
  facet normal 0.743145 0.669131 0
    outer loop
      vertex 13.3488 9.69846 3
      vertex 13.3488 9.69846 0
      vertex 11.0407 12.2619 3
    endloop
  endfacet
  facet normal 0.587785 0.809017 0
    outer loop
      vertex 8.25 14.2894 0
      vertex 8.25 14.2894 3
      vertex 11.0407 12.2619 0
    endloop
  endfacet
  facet normal 0.587785 0.809017 0
    outer loop
      vertex 11.0407 12.2619 0
      vertex 8.25 14.2894 3
      vertex 11.0407 12.2619 3
    endloop
  endfacet
  facet normal 0.406737 0.913545 0
    outer loop
      vertex 5.09878 15.6924 0
      vertex 5.09878 15.6924 3
      vertex 8.25 14.2894 0
    endloop
  endfacet
  facet normal 0.406737 0.913545 0
    outer loop
      vertex 8.25 14.2894 0
      vertex 5.09878 15.6924 3
      vertex 8.25 14.2894 3
    endloop
  endfacet
  facet normal 0.207912 0.978148 0
    outer loop
      vertex 1.72472 16.4096 0
      vertex 1.72472 16.4096 3
      vertex 5.09878 15.6924 0
    endloop
  endfacet
  facet normal 0.207912 0.978148 0
    outer loop
      vertex 5.09878 15.6924 0
      vertex 1.72472 16.4096 3
      vertex 5.09878 15.6924 3
    endloop
  endfacet
  facet normal 0 1 0
    outer loop
      vertex -1.72472 16.4096 0
      vertex -1.72472 16.4096 3
      vertex 1.72472 16.4096 0
    endloop
  endfacet
  facet normal 0 1 0
    outer loop
      vertex 1.72472 16.4096 0
      vertex -1.72472 16.4096 3
      vertex 1.72472 16.4096 3
    endloop
  endfacet
  facet normal -0.207912 0.978148 0
    outer loop
      vertex -5.09878 15.6924 0
      vertex -5.09878 15.6924 3
      vertex -1.72472 16.4096 0
    endloop
  endfacet
  facet normal -0.207912 0.978148 0
    outer loop
      vertex -1.72472 16.4096 0
      vertex -5.09878 15.6924 3
      vertex -1.72472 16.4096 3
    endloop
  endfacet
  facet normal -0.406737 0.913545 0
    outer loop
      vertex -8.25 14.2894 0
      vertex -8.25 14.2894 3
      vertex -5.09878 15.6924 0
    endloop
  endfacet
  facet normal -0.406737 0.913545 0
    outer loop
      vertex -5.09878 15.6924 0
      vertex -8.25 14.2894 3
      vertex -5.09878 15.6924 3
    endloop
  endfacet
  facet normal -0.587785 0.809017 0
    outer loop
      vertex -11.0407 12.2619 0
      vertex -11.0407 12.2619 3
      vertex -8.25 14.2894 0
    endloop
  endfacet
  facet normal -0.587785 0.809017 0
    outer loop
      vertex -8.25 14.2894 0
      vertex -11.0407 12.2619 3
      vertex -8.25 14.2894 3
    endloop
  endfacet
  facet normal -0.743145 0.669131 0
    outer loop
      vertex -13.3488 9.69846 0
      vertex -13.3488 9.69846 3
      vertex -11.0407 12.2619 0
    endloop
  endfacet
  facet normal -0.743145 0.669131 0
    outer loop
      vertex -11.0407 12.2619 0
      vertex -13.3488 9.69846 3
      vertex -11.0407 12.2619 3
    endloop
  endfacet
  facet normal -0.866025 0.5 0
    outer loop
      vertex -15.0735 6.71115 0
      vertex -15.0735 6.71115 3
      vertex -13.3488 9.69846 0
    endloop
  endfacet
  facet normal -0.866025 0.5 0
    outer loop
      vertex -13.3488 9.69846 0
      vertex -15.0735 6.71115 3
      vertex -13.3488 9.69846 3
    endloop
  endfacet
  facet normal -0.951057 0.309017 0
    outer loop
      vertex -16.1394 3.43054 0
      vertex -16.1394 3.43054 3
      vertex -15.0735 6.71115 0
    endloop
  endfacet
  facet normal -0.951057 0.309017 0
    outer loop
      vertex -15.0735 6.71115 0
      vertex -16.1394 3.43054 3
      vertex -15.0735 6.71115 3
    endloop
  endfacet
  facet normal 0.994522 0.104528 0
    outer loop
      vertex -12.5 0 23
      vertex -12.2268 -2.5989 23
      vertex -12.2268 -2.5989 0
    endloop
  endfacet
  facet normal 0.994522 0.104528 0
    outer loop
      vertex -12.5 0 0
      vertex -12.5 0 23
      vertex -12.2268 -2.5989 0
    endloop
  endfacet
  facet normal 0.994522 -0.104528 0
    outer loop
      vertex -12.2268 2.5989 0
      vertex -12.2268 2.5989 23
      vertex -12.5 0 23
    endloop
  endfacet
  facet normal 0.994522 -0.104528 0
    outer loop
      vertex -12.5 0 0
      vertex -12.2268 2.5989 0
      vertex -12.5 0 23
    endloop
  endfacet
  facet normal 0.951056 -0.309017 0
    outer loop
      vertex -11.4193 5.08421 0
      vertex -11.4193 5.08421 23
      vertex -12.2268 2.5989 23
    endloop
  endfacet
  facet normal 0.951056 -0.309017 0
    outer loop
      vertex -12.2268 2.5989 0
      vertex -11.4193 5.08421 0
      vertex -12.2268 2.5989 23
    endloop
  endfacet
  facet normal 0.866025 -0.5 0
    outer loop
      vertex -10.1127 7.34732 0
      vertex -10.1127 7.34732 23
      vertex -11.4193 5.08421 23
    endloop
  endfacet
  facet normal 0.866025 -0.5 0
    outer loop
      vertex -11.4193 5.08421 0
      vertex -10.1127 7.34732 0
      vertex -11.4193 5.08421 23
    endloop
  endfacet
  facet normal 0.743145 -0.669131 0
    outer loop
      vertex -8.36413 9.28931 0
      vertex -8.36413 9.28931 23
      vertex -10.1127 7.34732 23
    endloop
  endfacet
  facet normal 0.743145 -0.669131 0
    outer loop
      vertex -10.1127 7.34732 0
      vertex -8.36413 9.28931 0
      vertex -10.1127 7.34732 23
    endloop
  endfacet
  facet normal 0.587785 -0.809017 0
    outer loop
      vertex -6.25 10.8253 0
      vertex -6.25 10.8253 23
      vertex -8.36413 9.28931 23
    endloop
  endfacet
  facet normal 0.587785 -0.809017 0
    outer loop
      vertex -8.36413 9.28931 0
      vertex -6.25 10.8253 0
      vertex -8.36413 9.28931 23
    endloop
  endfacet
  facet normal 0.406736 -0.913546 0
    outer loop
      vertex -3.86271 11.8882 0
      vertex -3.86271 11.8882 23
      vertex -6.25 10.8253 23
    endloop
  endfacet
  facet normal 0.406736 -0.913546 0
    outer loop
      vertex -6.25 10.8253 0
      vertex -3.86271 11.8882 0
      vertex -6.25 10.8253 23
    endloop
  endfacet
  facet normal 0.207912 -0.978148 0
    outer loop
      vertex -1.30661 12.4315 0
      vertex -1.30661 12.4315 23
      vertex -3.86271 11.8882 23
    endloop
  endfacet
  facet normal 0.207912 -0.978148 0
    outer loop
      vertex -3.86271 11.8882 0
      vertex -1.30661 12.4315 0
      vertex -3.86271 11.8882 23
    endloop
  endfacet
  facet normal 0 -1 0
    outer loop
      vertex 1.30661 12.4315 0
      vertex 1.30661 12.4315 23
      vertex -1.30661 12.4315 23
    endloop
  endfacet
  facet normal 0 -1 0
    outer loop
      vertex -1.30661 12.4315 0
      vertex 1.30661 12.4315 0
      vertex -1.30661 12.4315 23
    endloop
  endfacet
  facet normal -0.207912 -0.978148 0
    outer loop
      vertex 3.86271 11.8882 0
      vertex 3.86271 11.8882 23
      vertex 1.30661 12.4315 23
    endloop
  endfacet
  facet normal -0.207912 -0.978148 0
    outer loop
      vertex 1.30661 12.4315 0
      vertex 3.86271 11.8882 0
      vertex 1.30661 12.4315 23
    endloop
  endfacet
  facet normal -0.406736 -0.913546 0
    outer loop
      vertex 6.25 10.8253 0
      vertex 6.25 10.8253 23
      vertex 3.86271 11.8882 23
    endloop
  endfacet
  facet normal -0.406736 -0.913546 0
    outer loop
      vertex 3.86271 11.8882 0
      vertex 6.25 10.8253 0
      vertex 3.86271 11.8882 23
    endloop
  endfacet
  facet normal -0.587785 -0.809017 0
    outer loop
      vertex 8.36413 9.28931 0
      vertex 8.36413 9.28931 23
      vertex 6.25 10.8253 23
    endloop
  endfacet
  facet normal -0.587785 -0.809017 0
    outer loop
      vertex 6.25 10.8253 0
      vertex 8.36413 9.28931 0
      vertex 6.25 10.8253 23
    endloop
  endfacet
  facet normal -0.743145 -0.669131 0
    outer loop
      vertex 10.1127 7.34732 23
      vertex 8.36413 9.28931 23
      vertex 10.1127 7.34732 0
    endloop
  endfacet
  facet normal -0.743145 -0.669131 0
    outer loop
      vertex 10.1127 7.34732 0
      vertex 8.36413 9.28931 23
      vertex 8.36413 9.28931 0
    endloop
  endfacet
  facet normal -0.866025 -0.5 0
    outer loop
      vertex 11.4193 5.08421 23
      vertex 10.1127 7.34732 23
      vertex 11.4193 5.08421 0
    endloop
  endfacet
  facet normal -0.866025 -0.5 0
    outer loop
      vertex 11.4193 5.08421 0
      vertex 10.1127 7.34732 23
      vertex 10.1127 7.34732 0
    endloop
  endfacet
  facet normal -0.951056 -0.309017 0
    outer loop
      vertex 12.2268 2.5989 23
      vertex 11.4193 5.08421 23
      vertex 12.2268 2.5989 0
    endloop
  endfacet
  facet normal -0.951056 -0.309017 0
    outer loop
      vertex 12.2268 2.5989 0
      vertex 11.4193 5.08421 23
      vertex 11.4193 5.08421 0
    endloop
  endfacet
  facet normal -0.994522 -0.104528 0
    outer loop
      vertex 12.5 0 23
      vertex 12.2268 2.5989 23
      vertex 12.5 0 0
    endloop
  endfacet
  facet normal -0.994522 -0.104528 0
    outer loop
      vertex 12.5 0 0
      vertex 12.2268 2.5989 23
      vertex 12.2268 2.5989 0
    endloop
  endfacet
  facet normal -0.994522 0.104528 0
    outer loop
      vertex 12.5 0 23
      vertex 12.5 0 0
      vertex 12.2268 -2.5989 23
    endloop
  endfacet
  facet normal -0.994522 0.104528 0
    outer loop
      vertex 12.2268 -2.5989 23
      vertex 12.5 0 0
      vertex 12.2268 -2.5989 0
    endloop
  endfacet
  facet normal -0.951056 0.309017 0
    outer loop
      vertex 12.2268 -2.5989 23
      vertex 12.2268 -2.5989 0
      vertex 11.4193 -5.08421 23
    endloop
  endfacet
  facet normal -0.951056 0.309017 0
    outer loop
      vertex 11.4193 -5.08421 23
      vertex 12.2268 -2.5989 0
      vertex 11.4193 -5.08421 0
    endloop
  endfacet
  facet normal -0.866025 0.5 0
    outer loop
      vertex 11.4193 -5.08421 23
      vertex 11.4193 -5.08421 0
      vertex 10.1127 -7.34732 23
    endloop
  endfacet
  facet normal -0.866025 0.5 0
    outer loop
      vertex 10.1127 -7.34732 23
      vertex 11.4193 -5.08421 0
      vertex 10.1127 -7.34732 0
    endloop
  endfacet
  facet normal -0.743145 0.669131 0
    outer loop
      vertex 10.1127 -7.34732 23
      vertex 10.1127 -7.34732 0
      vertex 8.36413 -9.28931 23
    endloop
  endfacet
  facet normal -0.743145 0.669131 0
    outer loop
      vertex 8.36413 -9.28931 23
      vertex 10.1127 -7.34732 0
      vertex 8.36413 -9.28931 0
    endloop
  endfacet
  facet normal -0.587785 0.809017 0
    outer loop
      vertex 8.36413 -9.28931 23
      vertex 8.36413 -9.28931 0
      vertex 6.25 -10.8253 23
    endloop
  endfacet
  facet normal -0.587785 0.809017 0
    outer loop
      vertex 6.25 -10.8253 23
      vertex 8.36413 -9.28931 0
      vertex 6.25 -10.8253 0
    endloop
  endfacet
  facet normal -0.406736 0.913546 0
    outer loop
      vertex 6.25 -10.8253 23
      vertex 6.25 -10.8253 0
      vertex 3.86271 -11.8882 23
    endloop
  endfacet
  facet normal -0.406736 0.913546 0
    outer loop
      vertex 3.86271 -11.8882 23
      vertex 6.25 -10.8253 0
      vertex 3.86271 -11.8882 0
    endloop
  endfacet
  facet normal -0.207912 0.978148 0
    outer loop
      vertex 3.86271 -11.8882 23
      vertex 3.86271 -11.8882 0
      vertex 1.30661 -12.4315 23
    endloop
  endfacet
  facet normal -0.207912 0.978148 0
    outer loop
      vertex 1.30661 -12.4315 23
      vertex 3.86271 -11.8882 0
      vertex 1.30661 -12.4315 0
    endloop
  endfacet
  facet normal 0 1 0
    outer loop
      vertex 1.30661 -12.4315 23
      vertex 1.30661 -12.4315 0
      vertex -1.30661 -12.4315 23
    endloop
  endfacet
  facet normal 0 1 0
    outer loop
      vertex -1.30661 -12.4315 23
      vertex 1.30661 -12.4315 0
      vertex -1.30661 -12.4315 0
    endloop
  endfacet
  facet normal 0.207912 0.978148 0
    outer loop
      vertex -1.30661 -12.4315 23
      vertex -1.30661 -12.4315 0
      vertex -3.86271 -11.8882 23
    endloop
  endfacet
  facet normal 0.207912 0.978148 0
    outer loop
      vertex -3.86271 -11.8882 23
      vertex -1.30661 -12.4315 0
      vertex -3.86271 -11.8882 0
    endloop
  endfacet
  facet normal 0.406736 0.913546 0
    outer loop
      vertex -3.86271 -11.8882 23
      vertex -3.86271 -11.8882 0
      vertex -6.25 -10.8253 23
    endloop
  endfacet
  facet normal 0.406736 0.913546 0
    outer loop
      vertex -6.25 -10.8253 23
      vertex -3.86271 -11.8882 0
      vertex -6.25 -10.8253 0
    endloop
  endfacet
  facet normal 0.587785 0.809017 0
    outer loop
      vertex -6.25 -10.8253 23
      vertex -6.25 -10.8253 0
      vertex -8.36413 -9.28931 23
    endloop
  endfacet
  facet normal 0.587785 0.809017 0
    outer loop
      vertex -8.36413 -9.28931 23
      vertex -6.25 -10.8253 0
      vertex -8.36413 -9.28931 0
    endloop
  endfacet
  facet normal 0.743145 0.669131 0
    outer loop
      vertex -10.1127 -7.34732 23
      vertex -8.36413 -9.28931 23
      vertex -8.36413 -9.28931 0
    endloop
  endfacet
  facet normal 0.743145 0.669131 0
    outer loop
      vertex -10.1127 -7.34732 0
      vertex -10.1127 -7.34732 23
      vertex -8.36413 -9.28931 0
    endloop
  endfacet
  facet normal 0.866025 0.5 0
    outer loop
      vertex -11.4193 -5.08421 23
      vertex -10.1127 -7.34732 23
      vertex -10.1127 -7.34732 0
    endloop
  endfacet
  facet normal 0.866025 0.5 0
    outer loop
      vertex -11.4193 -5.08421 0
      vertex -11.4193 -5.08421 23
      vertex -10.1127 -7.34732 0
    endloop
  endfacet
  facet normal 0.951056 0.309017 0
    outer loop
      vertex -12.2268 -2.5989 23
      vertex -11.4193 -5.08421 23
      vertex -11.4193 -5.08421 0
    endloop
  endfacet
  facet normal 0.951056 0.309017 0
    outer loop
      vertex -12.2268 -2.5989 0
      vertex -12.2268 -2.5989 23
      vertex -11.4193 -5.08421 0
    endloop
  endfacet
  facet normal 0 0 1
    outer loop
      vertex -16.1394 3.43054 3
      vertex -16.5 0 3
      vertex -16.1394 -3.43054 3
    endloop
  endfacet
  facet normal 0 0 1
    outer loop
      vertex -13.3488 -9.69846 3
      vertex -16.1394 3.43054 3
      vertex -15.0735 -6.71115 3
    endloop
  endfacet
  facet normal 0 0 1
    outer loop
      vertex -15.0735 -6.71115 3
      vertex -16.1394 3.43054 3
      vertex -16.1394 -3.43054 3
    endloop
  endfacet
  facet normal 0 0 1
    outer loop
      vertex -14.1831 -3.01472 3
      vertex -16.1394 3.43054 3
      vertex -13.3488 -9.69846 3
    endloop
  endfacet
  facet normal 0 0 1
    outer loop
      vertex 11.7307 -8.52289 3
      vertex 9.70239 -10.7756 3
      vertex 13.3488 -9.69846 3
    endloop
  endfacet
  facet normal 0 0 1
    outer loop
      vertex -14.1831 3.01472 3
      vertex -13.2464 5.89768 3
      vertex -16.1394 3.43054 3
    endloop
  endfacet
  facet normal 0 0 1
    outer loop
      vertex -4.48075 -13.7903 3
      vertex -7.25 -12.5574 3
      vertex -5.09878 -15.6924 3
    endloop
  endfacet
  facet normal 0 0 1
    outer loop
      vertex 13.2464 5.89768 3
      vertex 14.1831 3.01472 3
      vertex 16.1394 3.43054 3
    endloop
  endfacet
  facet normal 0 0 1
    outer loop
      vertex 11.7307 8.52289 3
      vertex 13.2464 5.89768 3
      vertex 15.0735 6.71115 3
    endloop
  endfacet
  facet normal 0 0 1
    outer loop
      vertex 9.70239 10.7756 3
      vertex 11.7307 8.52289 3
      vertex 13.3488 9.69846 3
    endloop
  endfacet
  facet normal 0 0 1
    outer loop
      vertex 7.25 12.5574 3
      vertex 9.70239 10.7756 3
      vertex 11.0407 12.2619 3
    endloop
  endfacet
  facet normal 0 0 1
    outer loop
      vertex -1.51566 14.4206 3
      vertex 1.51566 14.4206 3
      vertex 1.72472 16.4096 3
    endloop
  endfacet
  facet normal 0 0 1
    outer loop
      vertex -7.25 12.5574 3
      vertex -4.48075 13.7903 3
      vertex -1.72472 16.4096 3
    endloop
  endfacet
  facet normal 0 0 1
    outer loop
      vertex -11.0407 12.2619 3
      vertex -16.1394 3.43054 3
      vertex -8.25 14.2894 3
    endloop
  endfacet
  facet normal 0 0 1
    outer loop
      vertex -13.3488 9.69846 3
      vertex -16.1394 3.43054 3
      vertex -11.0407 12.2619 3
    endloop
  endfacet
  facet normal 0 0 1
    outer loop
      vertex -15.0735 6.71115 3
      vertex -16.1394 3.43054 3
      vertex -13.3488 9.69846 3
    endloop
  endfacet
  facet normal 0 0 1
    outer loop
      vertex -13.2464 -5.89768 3
      vertex -14.1831 -3.01472 3
      vertex -13.3488 -9.69846 3
    endloop
  endfacet
  facet normal 0 0 1
    outer loop
      vertex 13.2464 -5.89768 3
      vertex 11.7307 -8.52289 3
      vertex 15.0735 -6.71115 3
    endloop
  endfacet
  facet normal 0 0 1
    outer loop
      vertex 1.51566 14.4206 3
      vertex 4.48075 13.7903 3
      vertex 5.09878 15.6924 3
    endloop
  endfacet
  facet normal 0 0 1
    outer loop
      vertex -8.25 14.2894 3
      vertex -16.1394 3.43054 3
      vertex -11.7307 8.52289 3
    endloop
  endfacet
  facet normal 0 0 1
    outer loop
      vertex -8.25 14.2894 3
      vertex -9.70239 10.7756 3
      vertex -5.09878 15.6924 3
    endloop
  endfacet
  facet normal 0 0 1
    outer loop
      vertex -8.25 14.2894 3
      vertex -11.7307 8.52289 3
      vertex -9.70239 10.7756 3
    endloop
  endfacet
  facet normal 0 0 1
    outer loop
      vertex -5.09878 15.6924 3
      vertex -7.25 12.5574 3
      vertex -1.72472 16.4096 3
    endloop
  endfacet
  facet normal 0 0 1
    outer loop
      vertex -9.70239 10.7756 3
      vertex -7.25 12.5574 3
      vertex -5.09878 15.6924 3
    endloop
  endfacet
  facet normal 0 0 1
    outer loop
      vertex -1.72472 16.4096 3
      vertex -4.48075 13.7903 3
      vertex 1.72472 16.4096 3
    endloop
  endfacet
  facet normal 0 0 1
    outer loop
      vertex -4.48075 13.7903 3
      vertex -1.51566 14.4206 3
      vertex 1.72472 16.4096 3
    endloop
  endfacet
  facet normal 0 0 1
    outer loop
      vertex 1.72472 16.4096 3
      vertex 1.51566 14.4206 3
      vertex 5.09878 15.6924 3
    endloop
  endfacet
  facet normal 0 0 1
    outer loop
      vertex 14.1831 3.01472 3
      vertex 14.5 0 3
      vertex 16.5 0 3
    endloop
  endfacet
  facet normal 0 0 1
    outer loop
      vertex 5.09878 15.6924 3
      vertex 4.48075 13.7903 3
      vertex 8.25 14.2894 3
    endloop
  endfacet
  facet normal 0 0 1
    outer loop
      vertex -13.2464 5.89768 3
      vertex -11.7307 8.52289 3
      vertex -16.1394 3.43054 3
    endloop
  endfacet
  facet normal 0 0 1
    outer loop
      vertex 8.25 14.2894 3
      vertex 7.25 12.5574 3
      vertex 11.0407 12.2619 3
    endloop
  endfacet
  facet normal 0 0 1
    outer loop
      vertex 11.0407 12.2619 3
      vertex 9.70239 10.7756 3
      vertex 13.3488 9.69846 3
    endloop
  endfacet
  facet normal 0 0 1
    outer loop
      vertex 13.3488 9.69846 3
      vertex 11.7307 8.52289 3
      vertex 15.0735 6.71115 3
    endloop
  endfacet
  facet normal 0 0 1
    outer loop
      vertex 15.0735 6.71115 3
      vertex 13.2464 5.89768 3
      vertex 16.1394 3.43054 3
    endloop
  endfacet
  facet normal 0 0 1
    outer loop
      vertex 16.1394 3.43054 3
      vertex 14.1831 3.01472 3
      vertex 16.5 0 3
    endloop
  endfacet
  facet normal 0 0 1
    outer loop
      vertex 16.5 0 3
      vertex 14.5 0 3
      vertex 16.1394 -3.43054 3
    endloop
  endfacet
  facet normal 0 0 1
    outer loop
      vertex 16.1394 -3.43054 3
      vertex 14.1831 -3.01472 3
      vertex 15.0735 -6.71115 3
    endloop
  endfacet
  facet normal 0 0 1
    outer loop
      vertex 4.48075 13.7903 3
      vertex 7.25 12.5574 3
      vertex 8.25 14.2894 3
    endloop
  endfacet
  facet normal 0 0 1
    outer loop
      vertex 14.1831 -3.01472 3
      vertex 13.2464 -5.89768 3
      vertex 15.0735 -6.71115 3
    endloop
  endfacet
  facet normal 0 0 1
    outer loop
      vertex 15.0735 -6.71115 3
      vertex 11.7307 -8.52289 3
      vertex 13.3488 -9.69846 3
    endloop
  endfacet
  facet normal 0 0 1
    outer loop
      vertex 13.3488 -9.69846 3
      vertex 9.70239 -10.7756 3
      vertex 11.0407 -12.2619 3
    endloop
  endfacet
  facet normal 0 0 1
    outer loop
      vertex 11.0407 -12.2619 3
      vertex 7.25 -12.5574 3
      vertex 8.25 -14.2894 3
    endloop
  endfacet
  facet normal 0 0 1
    outer loop
      vertex 8.25 -14.2894 3
      vertex 4.48075 -13.7903 3
      vertex 5.09878 -15.6924 3
    endloop
  endfacet
  facet normal 0 0 1
    outer loop
      vertex 5.09878 -15.6924 3
      vertex 1.51566 -14.4206 3
      vertex 1.72472 -16.4096 3
    endloop
  endfacet
  facet normal 0 0 1
    outer loop
      vertex 1.72472 -16.4096 3
      vertex -1.51566 -14.4206 3
      vertex -1.72472 -16.4096 3
    endloop
  endfacet
  facet normal 0 0 1
    outer loop
      vertex 14.5 0 3
      vertex 14.1831 -3.01472 3
      vertex 16.1394 -3.43054 3
    endloop
  endfacet
  facet normal 0 0 1
    outer loop
      vertex -1.72472 -16.4096 3
      vertex -4.48075 -13.7903 3
      vertex -5.09878 -15.6924 3
    endloop
  endfacet
  facet normal 0 0 1
    outer loop
      vertex -5.09878 -15.6924 3
      vertex -7.25 -12.5574 3
      vertex -8.25 -14.2894 3
    endloop
  endfacet
  facet normal 0 0 1
    outer loop
      vertex -7.25 -12.5574 3
      vertex -9.70239 -10.7756 3
      vertex -8.25 -14.2894 3
    endloop
  endfacet
  facet normal 0 0 1
    outer loop
      vertex -8.25 -14.2894 3
      vertex -11.7307 -8.52289 3
      vertex -11.0407 -12.2619 3
    endloop
  endfacet
  facet normal 0 0 1
    outer loop
      vertex -11.0407 -12.2619 3
      vertex -13.2464 -5.89768 3
      vertex -13.3488 -9.69846 3
    endloop
  endfacet
  facet normal 0 0 1
    outer loop
      vertex -14.1831 -3.01472 3
      vertex -14.5 0 3
      vertex -16.1394 3.43054 3
    endloop
  endfacet
  facet normal 0 0 1
    outer loop
      vertex 9.70239 -10.7756 3
      vertex 7.25 -12.5574 3
      vertex 11.0407 -12.2619 3
    endloop
  endfacet
  facet normal 0 0 1
    outer loop
      vertex 7.25 -12.5574 3
      vertex 4.48075 -13.7903 3
      vertex 8.25 -14.2894 3
    endloop
  endfacet
  facet normal 0 0 1
    outer loop
      vertex 4.48075 -13.7903 3
      vertex 1.51566 -14.4206 3
      vertex 5.09878 -15.6924 3
    endloop
  endfacet
  facet normal 0 0 1
    outer loop
      vertex 1.51566 -14.4206 3
      vertex -1.51566 -14.4206 3
      vertex 1.72472 -16.4096 3
    endloop
  endfacet
  facet normal 0 0 1
    outer loop
      vertex -1.51566 -14.4206 3
      vertex -4.48075 -13.7903 3
      vertex -1.72472 -16.4096 3
    endloop
  endfacet
  facet normal 0 0 1
    outer loop
      vertex -11.7307 -8.52289 3
      vertex -13.2464 -5.89768 3
      vertex -11.0407 -12.2619 3
    endloop
  endfacet
  facet normal 0 0 1
    outer loop
      vertex -9.70239 -10.7756 3
      vertex -11.7307 -8.52289 3
      vertex -8.25 -14.2894 3
    endloop
  endfacet
  facet normal 0 0 1
    outer loop
      vertex -14.5 0 3
      vertex -14.1831 3.01472 3
      vertex -16.1394 3.43054 3
    endloop
  endfacet
  facet normal 0 0 1
    outer loop
      vertex -14.1831 3.01472 23
      vertex -14.5 0 23
      vertex -14.1831 -3.01472 23
    endloop
  endfacet
  facet normal 0 0 1
    outer loop
      vertex -11.7307 -8.52289 23
      vertex -14.1831 3.01472 23
      vertex -13.2464 -5.89768 23
    endloop
  endfacet
  facet normal 0 0 1
    outer loop
      vertex -13.2464 -5.89768 23
      vertex -14.1831 3.01472 23
      vertex -14.1831 -3.01472 23
    endloop
  endfacet
  facet normal 0 0 1
    outer loop
      vertex -9.70239 -10.7756 23
      vertex -14.1831 3.01472 23
      vertex -11.7307 -8.52289 23
    endloop
  endfacet
  facet normal 0 0 1
    outer loop
      vertex -12.2268 -2.5989 23
      vertex -14.1831 3.01472 23
      vertex -9.70239 -10.7756 23
    endloop
  endfacet
  facet normal 0 0 1
    outer loop
      vertex -6.25 10.8253 23
      vertex -3.86271 11.8882 23
      vertex -1.51566 14.4206 23
    endloop
  endfacet
  facet normal 0 0 1
    outer loop
      vertex -1.30661 12.4315 23
      vertex 1.30661 12.4315 23
      vertex 1.51566 14.4206 23
    endloop
  endfacet
  facet normal 0 0 1
    outer loop
      vertex -7.25 12.5574 23
      vertex -14.1831 3.01472 23
      vertex -4.48075 13.7903 23
    endloop
  endfacet
  facet normal 0 0 1
    outer loop
      vertex -9.70239 10.7756 23
      vertex -14.1831 3.01472 23
      vertex -7.25 12.5574 23
    endloop
  endfacet
  facet normal 0 0 1
    outer loop
      vertex -11.7307 8.52289 23
      vertex -14.1831 3.01472 23
      vertex -9.70239 10.7756 23
    endloop
  endfacet
  facet normal 0 0 1
    outer loop
      vertex -13.2464 5.89768 23
      vertex -14.1831 3.01472 23
      vertex -11.7307 8.52289 23
    endloop
  endfacet
  facet normal 0 0 1
    outer loop
      vertex -11.4193 -5.08421 23
      vertex -12.2268 -2.5989 23
      vertex -9.70239 -10.7756 23
    endloop
  endfacet
  facet normal 0 0 1
    outer loop
      vertex 8.36413 -9.28931 23
      vertex 6.25 -10.8253 23
      vertex 9.70239 -10.7756 23
    endloop
  endfacet
  facet normal 0 0 1
    outer loop
      vertex 10.1127 -7.34732 23
      vertex 8.36413 -9.28931 23
      vertex 11.7307 -8.52289 23
    endloop
  endfacet
  facet normal 0 0 1
    outer loop
      vertex 1.30661 12.4315 23
      vertex 3.86271 11.8882 23
      vertex 4.48075 13.7903 23
    endloop
  endfacet
  facet normal 0 0 1
    outer loop
      vertex -3.86271 -11.8882 23
      vertex -6.25 -10.8253 23
      vertex -4.48075 -13.7903 23
    endloop
  endfacet
  facet normal 0 0 1
    outer loop
      vertex -4.48075 13.7903 23
      vertex -14.1831 3.01472 23
      vertex -10.1127 7.34732 23
    endloop
  endfacet
  facet normal 0 0 1
    outer loop
      vertex -4.48075 13.7903 23
      vertex -8.36413 9.28931 23
      vertex -1.51566 14.4206 23
    endloop
  endfacet
  facet normal 0 0 1
    outer loop
      vertex -4.48075 13.7903 23
      vertex -10.1127 7.34732 23
      vertex -8.36413 9.28931 23
    endloop
  endfacet
  facet normal 0 0 1
    outer loop
      vertex -8.36413 9.28931 23
      vertex -6.25 10.8253 23
      vertex -1.51566 14.4206 23
    endloop
  endfacet
  facet normal 0 0 1
    outer loop
      vertex -1.51566 14.4206 23
      vertex -3.86271 11.8882 23
      vertex 1.51566 14.4206 23
    endloop
  endfacet
  facet normal 0 0 1
    outer loop
      vertex -3.86271 11.8882 23
      vertex -1.30661 12.4315 23
      vertex 1.51566 14.4206 23
    endloop
  endfacet
  facet normal 0 0 1
    outer loop
      vertex 1.51566 14.4206 23
      vertex 1.30661 12.4315 23
      vertex 4.48075 13.7903 23
    endloop
  endfacet
  facet normal 0 0 1
    outer loop
      vertex -11.4193 5.08421 23
      vertex -10.1127 7.34732 23
      vertex -14.1831 3.01472 23
    endloop
  endfacet
  facet normal 0 0 1
    outer loop
      vertex 4.48075 13.7903 23
      vertex 3.86271 11.8882 23
      vertex 7.25 12.5574 23
    endloop
  endfacet
  facet normal 0 0 1
    outer loop
      vertex 7.25 12.5574 23
      vertex 6.25 10.8253 23
      vertex 9.70239 10.7756 23
    endloop
  endfacet
  facet normal 0 0 1
    outer loop
      vertex 9.70239 10.7756 23
      vertex 8.36413 9.28931 23
      vertex 11.7307 8.52289 23
    endloop
  endfacet
  facet normal 0 0 1
    outer loop
      vertex 11.7307 8.52289 23
      vertex 10.1127 7.34732 23
      vertex 13.2464 5.89768 23
    endloop
  endfacet
  facet normal 0 0 1
    outer loop
      vertex 13.2464 5.89768 23
      vertex 11.4193 5.08421 23
      vertex 14.1831 3.01472 23
    endloop
  endfacet
  facet normal 0 0 1
    outer loop
      vertex 14.1831 3.01472 23
      vertex 12.2268 2.5989 23
      vertex 14.5 0 23
    endloop
  endfacet
  facet normal 0 0 1
    outer loop
      vertex 14.5 0 23
      vertex 12.5 0 23
      vertex 14.1831 -3.01472 23
    endloop
  endfacet
  facet normal 0 0 1
    outer loop
      vertex 12.5 0 23
      vertex 12.2268 -2.5989 23
      vertex 14.1831 -3.01472 23
    endloop
  endfacet
  facet normal 0 0 1
    outer loop
      vertex 14.1831 -3.01472 23
      vertex 11.4193 -5.08421 23
      vertex 13.2464 -5.89768 23
    endloop
  endfacet
  facet normal 0 0 1
    outer loop
      vertex 13.2464 -5.89768 23
      vertex 10.1127 -7.34732 23
      vertex 11.7307 -8.52289 23
    endloop
  endfacet
  facet normal 0 0 1
    outer loop
      vertex 3.86271 11.8882 23
      vertex 6.25 10.8253 23
      vertex 7.25 12.5574 23
    endloop
  endfacet
  facet normal 0 0 1
    outer loop
      vertex 11.7307 -8.52289 23
      vertex 8.36413 -9.28931 23
      vertex 9.70239 -10.7756 23
    endloop
  endfacet
  facet normal 0 0 1
    outer loop
      vertex 6.25 10.8253 23
      vertex 8.36413 9.28931 23
      vertex 9.70239 10.7756 23
    endloop
  endfacet
  facet normal 0 0 1
    outer loop
      vertex 9.70239 -10.7756 23
      vertex 6.25 -10.8253 23
      vertex 7.25 -12.5574 23
    endloop
  endfacet
  facet normal 0 0 1
    outer loop
      vertex 8.36413 9.28931 23
      vertex 10.1127 7.34732 23
      vertex 11.7307 8.52289 23
    endloop
  endfacet
  facet normal 0 0 1
    outer loop
      vertex 7.25 -12.5574 23
      vertex 3.86271 -11.8882 23
      vertex 4.48075 -13.7903 23
    endloop
  endfacet
  facet normal 0 0 1
    outer loop
      vertex 10.1127 7.34732 23
      vertex 11.4193 5.08421 23
      vertex 13.2464 5.89768 23
    endloop
  endfacet
  facet normal 0 0 1
    outer loop
      vertex 4.48075 -13.7903 23
      vertex 1.30661 -12.4315 23
      vertex 1.51566 -14.4206 23
    endloop
  endfacet
  facet normal 0 0 1
    outer loop
      vertex 11.4193 5.08421 23
      vertex 12.2268 2.5989 23
      vertex 14.1831 3.01472 23
    endloop
  endfacet
  facet normal 0 0 1
    outer loop
      vertex 1.51566 -14.4206 23
      vertex -1.30661 -12.4315 23
      vertex -1.51566 -14.4206 23
    endloop
  endfacet
  facet normal 0 0 1
    outer loop
      vertex 12.2268 2.5989 23
      vertex 12.5 0 23
      vertex 14.5 0 23
    endloop
  endfacet
  facet normal 0 0 1
    outer loop
      vertex -1.51566 -14.4206 23
      vertex -3.86271 -11.8882 23
      vertex -4.48075 -13.7903 23
    endloop
  endfacet
  facet normal 0 0 1
    outer loop
      vertex 12.2268 -2.5989 23
      vertex 11.4193 -5.08421 23
      vertex 14.1831 -3.01472 23
    endloop
  endfacet
  facet normal 0 0 1
    outer loop
      vertex -4.48075 -13.7903 23
      vertex -6.25 -10.8253 23
      vertex -7.25 -12.5574 23
    endloop
  endfacet
  facet normal 0 0 1
    outer loop
      vertex -6.25 -10.8253 23
      vertex -8.36413 -9.28931 23
      vertex -7.25 -12.5574 23
    endloop
  endfacet
  facet normal 0 0 1
    outer loop
      vertex -7.25 -12.5574 23
      vertex -10.1127 -7.34732 23
      vertex -9.70239 -10.7756 23
    endloop
  endfacet
  facet normal 0 0 1
    outer loop
      vertex -10.1127 -7.34732 23
      vertex -11.4193 -5.08421 23
      vertex -9.70239 -10.7756 23
    endloop
  endfacet
  facet normal 0 0 1
    outer loop
      vertex -12.2268 -2.5989 23
      vertex -12.5 0 23
      vertex -14.1831 3.01472 23
    endloop
  endfacet
  facet normal 0 0 1
    outer loop
      vertex 6.25 -10.8253 23
      vertex 3.86271 -11.8882 23
      vertex 7.25 -12.5574 23
    endloop
  endfacet
  facet normal 0 0 1
    outer loop
      vertex 3.86271 -11.8882 23
      vertex 1.30661 -12.4315 23
      vertex 4.48075 -13.7903 23
    endloop
  endfacet
  facet normal 0 0 1
    outer loop
      vertex 1.30661 -12.4315 23
      vertex -1.30661 -12.4315 23
      vertex 1.51566 -14.4206 23
    endloop
  endfacet
  facet normal 0 0 1
    outer loop
      vertex -1.30661 -12.4315 23
      vertex -3.86271 -11.8882 23
      vertex -1.51566 -14.4206 23
    endloop
  endfacet
  facet normal 0 0 1
    outer loop
      vertex -8.36413 -9.28931 23
      vertex -10.1127 -7.34732 23
      vertex -7.25 -12.5574 23
    endloop
  endfacet
  facet normal 0 0 1
    outer loop
      vertex -12.5 0 23
      vertex -12.2268 2.5989 23
      vertex -14.1831 3.01472 23
    endloop
  endfacet
  facet normal 0 0 1
    outer loop
      vertex 11.4193 -5.08421 23
      vertex 10.1127 -7.34732 23
      vertex 13.2464 -5.89768 23
    endloop
  endfacet
  facet normal 0 0 1
    outer loop
      vertex -12.2268 2.5989 23
      vertex -11.4193 5.08421 23
      vertex -14.1831 3.01472 23
    endloop
  endfacet
  facet normal -0.994522 -0.104529 0
    outer loop
      vertex -14.5 0 3
      vertex -14.1831 -3.01472 3
      vertex -14.5 0 23
    endloop
  endfacet
  facet normal -0.994522 -0.104529 0
    outer loop
      vertex -14.5 0 23
      vertex -14.1831 -3.01472 3
      vertex -14.1831 -3.01472 23
    endloop
  endfacet
  facet normal -0.951056 -0.309017 0
    outer loop
      vertex -14.1831 -3.01472 3
      vertex -13.2464 -5.89768 3
      vertex -14.1831 -3.01472 23
    endloop
  endfacet
  facet normal -0.951056 -0.309017 0
    outer loop
      vertex -14.1831 -3.01472 23
      vertex -13.2464 -5.89768 3
      vertex -13.2464 -5.89768 23
    endloop
  endfacet
  facet normal -0.866025 -0.5 0
    outer loop
      vertex -13.2464 -5.89768 3
      vertex -11.7307 -8.52289 3
      vertex -13.2464 -5.89768 23
    endloop
  endfacet
  facet normal -0.866025 -0.5 0
    outer loop
      vertex -13.2464 -5.89768 23
      vertex -11.7307 -8.52289 3
      vertex -11.7307 -8.52289 23
    endloop
  endfacet
  facet normal -0.743145 -0.66913 0
    outer loop
      vertex -11.7307 -8.52289 3
      vertex -9.70239 -10.7756 3
      vertex -11.7307 -8.52289 23
    endloop
  endfacet
  facet normal -0.743145 -0.66913 0
    outer loop
      vertex -11.7307 -8.52289 23
      vertex -9.70239 -10.7756 3
      vertex -9.70239 -10.7756 23
    endloop
  endfacet
  facet normal -0.587785 -0.809017 0
    outer loop
      vertex -9.70239 -10.7756 23
      vertex -9.70239 -10.7756 3
      vertex -7.25 -12.5574 3
    endloop
  endfacet
  facet normal -0.587785 -0.809017 0
    outer loop
      vertex -7.25 -12.5574 23
      vertex -9.70239 -10.7756 23
      vertex -7.25 -12.5574 3
    endloop
  endfacet
  facet normal -0.406737 -0.913545 0
    outer loop
      vertex -7.25 -12.5574 23
      vertex -7.25 -12.5574 3
      vertex -4.48075 -13.7903 3
    endloop
  endfacet
  facet normal -0.406737 -0.913545 0
    outer loop
      vertex -4.48075 -13.7903 23
      vertex -7.25 -12.5574 23
      vertex -4.48075 -13.7903 3
    endloop
  endfacet
  facet normal -0.207912 -0.978148 0
    outer loop
      vertex -4.48075 -13.7903 23
      vertex -4.48075 -13.7903 3
      vertex -1.51566 -14.4206 3
    endloop
  endfacet
  facet normal -0.207912 -0.978148 0
    outer loop
      vertex -1.51566 -14.4206 23
      vertex -4.48075 -13.7903 23
      vertex -1.51566 -14.4206 3
    endloop
  endfacet
  facet normal 0 -1 0
    outer loop
      vertex -1.51566 -14.4206 23
      vertex -1.51566 -14.4206 3
      vertex 1.51566 -14.4206 3
    endloop
  endfacet
  facet normal 0 -1 0
    outer loop
      vertex 1.51566 -14.4206 23
      vertex -1.51566 -14.4206 23
      vertex 1.51566 -14.4206 3
    endloop
  endfacet
  facet normal 0.207912 -0.978148 0
    outer loop
      vertex 1.51566 -14.4206 23
      vertex 1.51566 -14.4206 3
      vertex 4.48075 -13.7903 3
    endloop
  endfacet
  facet normal 0.207912 -0.978148 0
    outer loop
      vertex 4.48075 -13.7903 23
      vertex 1.51566 -14.4206 23
      vertex 4.48075 -13.7903 3
    endloop
  endfacet
  facet normal 0.406737 -0.913545 0
    outer loop
      vertex 4.48075 -13.7903 23
      vertex 4.48075 -13.7903 3
      vertex 7.25 -12.5574 3
    endloop
  endfacet
  facet normal 0.406737 -0.913545 0
    outer loop
      vertex 7.25 -12.5574 23
      vertex 4.48075 -13.7903 23
      vertex 7.25 -12.5574 3
    endloop
  endfacet
  facet normal 0.587785 -0.809017 0
    outer loop
      vertex 7.25 -12.5574 23
      vertex 7.25 -12.5574 3
      vertex 9.70239 -10.7756 3
    endloop
  endfacet
  facet normal 0.587785 -0.809017 0
    outer loop
      vertex 9.70239 -10.7756 23
      vertex 7.25 -12.5574 23
      vertex 9.70239 -10.7756 3
    endloop
  endfacet
  facet normal 0.743145 -0.66913 0
    outer loop
      vertex 9.70239 -10.7756 23
      vertex 9.70239 -10.7756 3
      vertex 11.7307 -8.52289 3
    endloop
  endfacet
  facet normal 0.743145 -0.66913 0
    outer loop
      vertex 11.7307 -8.52289 23
      vertex 9.70239 -10.7756 23
      vertex 11.7307 -8.52289 3
    endloop
  endfacet
  facet normal 0.866025 -0.5 0
    outer loop
      vertex 11.7307 -8.52289 23
      vertex 11.7307 -8.52289 3
      vertex 13.2464 -5.89768 3
    endloop
  endfacet
  facet normal 0.866025 -0.5 0
    outer loop
      vertex 13.2464 -5.89768 23
      vertex 11.7307 -8.52289 23
      vertex 13.2464 -5.89768 3
    endloop
  endfacet
  facet normal 0.951056 -0.309017 0
    outer loop
      vertex 13.2464 -5.89768 23
      vertex 13.2464 -5.89768 3
      vertex 14.1831 -3.01472 3
    endloop
  endfacet
  facet normal 0.951056 -0.309017 0
    outer loop
      vertex 14.1831 -3.01472 23
      vertex 13.2464 -5.89768 23
      vertex 14.1831 -3.01472 3
    endloop
  endfacet
  facet normal 0.994522 -0.104529 0
    outer loop
      vertex 14.1831 -3.01472 23
      vertex 14.1831 -3.01472 3
      vertex 14.5 0 3
    endloop
  endfacet
  facet normal 0.994522 -0.104529 0
    outer loop
      vertex 14.5 0 23
      vertex 14.1831 -3.01472 23
      vertex 14.5 0 3
    endloop
  endfacet
  facet normal 0.994522 0.104529 0
    outer loop
      vertex 14.5 0 3
      vertex 14.1831 3.01472 3
      vertex 14.1831 3.01472 23
    endloop
  endfacet
  facet normal 0.994522 0.104529 0
    outer loop
      vertex 14.5 0 23
      vertex 14.5 0 3
      vertex 14.1831 3.01472 23
    endloop
  endfacet
  facet normal 0.951056 0.309017 0
    outer loop
      vertex 14.1831 3.01472 3
      vertex 13.2464 5.89768 3
      vertex 13.2464 5.89768 23
    endloop
  endfacet
  facet normal 0.951056 0.309017 0
    outer loop
      vertex 14.1831 3.01472 23
      vertex 14.1831 3.01472 3
      vertex 13.2464 5.89768 23
    endloop
  endfacet
  facet normal 0.866025 0.5 0
    outer loop
      vertex 13.2464 5.89768 3
      vertex 11.7307 8.52289 3
      vertex 11.7307 8.52289 23
    endloop
  endfacet
  facet normal 0.866025 0.5 0
    outer loop
      vertex 13.2464 5.89768 23
      vertex 13.2464 5.89768 3
      vertex 11.7307 8.52289 23
    endloop
  endfacet
  facet normal 0.743145 0.66913 0
    outer loop
      vertex 11.7307 8.52289 3
      vertex 9.70239 10.7756 3
      vertex 9.70239 10.7756 23
    endloop
  endfacet
  facet normal 0.743145 0.66913 0
    outer loop
      vertex 11.7307 8.52289 23
      vertex 11.7307 8.52289 3
      vertex 9.70239 10.7756 23
    endloop
  endfacet
  facet normal 0.587785 0.809017 0
    outer loop
      vertex 7.25 12.5574 3
      vertex 7.25 12.5574 23
      vertex 9.70239 10.7756 3
    endloop
  endfacet
  facet normal 0.587785 0.809017 0
    outer loop
      vertex 9.70239 10.7756 3
      vertex 7.25 12.5574 23
      vertex 9.70239 10.7756 23
    endloop
  endfacet
  facet normal 0.406737 0.913545 0
    outer loop
      vertex 4.48075 13.7903 3
      vertex 4.48075 13.7903 23
      vertex 7.25 12.5574 3
    endloop
  endfacet
  facet normal 0.406737 0.913545 0
    outer loop
      vertex 7.25 12.5574 3
      vertex 4.48075 13.7903 23
      vertex 7.25 12.5574 23
    endloop
  endfacet
  facet normal 0.207912 0.978148 0
    outer loop
      vertex 1.51566 14.4206 3
      vertex 1.51566 14.4206 23
      vertex 4.48075 13.7903 3
    endloop
  endfacet
  facet normal 0.207912 0.978148 0
    outer loop
      vertex 4.48075 13.7903 3
      vertex 1.51566 14.4206 23
      vertex 4.48075 13.7903 23
    endloop
  endfacet
  facet normal 0 1 0
    outer loop
      vertex -1.51566 14.4206 3
      vertex -1.51566 14.4206 23
      vertex 1.51566 14.4206 3
    endloop
  endfacet
  facet normal 0 1 0
    outer loop
      vertex 1.51566 14.4206 3
      vertex -1.51566 14.4206 23
      vertex 1.51566 14.4206 23
    endloop
  endfacet
  facet normal -0.207912 0.978148 0
    outer loop
      vertex -4.48075 13.7903 3
      vertex -4.48075 13.7903 23
      vertex -1.51566 14.4206 3
    endloop
  endfacet
  facet normal -0.207912 0.978148 0
    outer loop
      vertex -1.51566 14.4206 3
      vertex -4.48075 13.7903 23
      vertex -1.51566 14.4206 23
    endloop
  endfacet
  facet normal -0.406737 0.913545 0
    outer loop
      vertex -7.25 12.5574 3
      vertex -7.25 12.5574 23
      vertex -4.48075 13.7903 3
    endloop
  endfacet
  facet normal -0.406737 0.913545 0
    outer loop
      vertex -4.48075 13.7903 3
      vertex -7.25 12.5574 23
      vertex -4.48075 13.7903 23
    endloop
  endfacet
  facet normal -0.587785 0.809017 0
    outer loop
      vertex -9.70239 10.7756 3
      vertex -9.70239 10.7756 23
      vertex -7.25 12.5574 3
    endloop
  endfacet
  facet normal -0.587785 0.809017 0
    outer loop
      vertex -7.25 12.5574 3
      vertex -9.70239 10.7756 23
      vertex -7.25 12.5574 23
    endloop
  endfacet
  facet normal -0.743145 0.66913 0
    outer loop
      vertex -11.7307 8.52289 3
      vertex -11.7307 8.52289 23
      vertex -9.70239 10.7756 3
    endloop
  endfacet
  facet normal -0.743145 0.66913 0
    outer loop
      vertex -9.70239 10.7756 3
      vertex -11.7307 8.52289 23
      vertex -9.70239 10.7756 23
    endloop
  endfacet
  facet normal -0.866025 0.5 0
    outer loop
      vertex -13.2464 5.89768 3
      vertex -13.2464 5.89768 23
      vertex -11.7307 8.52289 3
    endloop
  endfacet
  facet normal -0.866025 0.5 0
    outer loop
      vertex -11.7307 8.52289 3
      vertex -13.2464 5.89768 23
      vertex -11.7307 8.52289 23
    endloop
  endfacet
  facet normal -0.951056 0.309017 0
    outer loop
      vertex -14.1831 3.01472 3
      vertex -14.1831 3.01472 23
      vertex -13.2464 5.89768 3
    endloop
  endfacet
  facet normal -0.951056 0.309017 0
    outer loop
      vertex -13.2464 5.89768 3
      vertex -14.1831 3.01472 23
      vertex -13.2464 5.89768 23
    endloop
  endfacet
  facet normal -0.994522 0.104529 0
    outer loop
      vertex -14.5 0 3
      vertex -14.5 0 23
      vertex -14.1831 3.01472 3
    endloop
  endfacet
  facet normal -0.994522 0.104529 0
    outer loop
      vertex -14.1831 3.01472 3
      vertex -14.5 0 23
      vertex -14.1831 3.01472 23
    endloop
  endfacet
endsolid OpenSCAD_Model
