solid OpenSCAD_Model
  facet normal 0 0 -1
    outer loop
      vertex -15.75 0 0
      vertex -15.4058 3.27461 0
      vertex -15.4058 -3.27461 0
    endloop
  endfacet
  facet normal 0 0 -1
    outer loop
      vertex -15.4058 -3.27461 0
      vertex -15.4058 3.27461 0
      vertex -14.3883 6.4061 0
    endloop
  endfacet
  facet normal 0 0 -1
    outer loop
      vertex -15.4058 -3.27461 0
      vertex -14.3883 6.4061 0
      vertex -12.742 9.25762 0
    endloop
  endfacet
  facet normal 0 0 -1
    outer loop
      vertex -15.4058 -3.27461 0
      vertex -12.742 9.25762 0
      vertex -10.5388 11.7045 0
    endloop
  endfacet
  facet normal 0 0 -1
    outer loop
      vertex -15.4058 -3.27461 0
      vertex -10.5388 11.7045 0
      vertex -7.875 13.6399 0
    endloop
  endfacet
  facet normal 0 0 -1
    outer loop
      vertex -15.4058 -3.27461 0
      vertex -7.875 13.6399 0
      vertex -4.86702 14.9791 0
    endloop
  endfacet
  facet normal 0 0 -1
    outer loop
      vertex -5.875 10.1758 0
      vertex -4.86702 14.9791 0
      vertex -1.64632 15.6637 0
    endloop
  endfacet
  facet normal 0 0 -1
    outer loop
      vertex -3.63095 11.1749 0
      vertex -1.64632 15.6637 0
      vertex 1.64632 15.6637 0
    endloop
  endfacet
  facet normal 0 0 -1
    outer loop
      vertex -1.22821 11.6856 0
      vertex 1.64632 15.6637 0
      vertex 4.86702 14.9791 0
    endloop
  endfacet
  facet normal 0 0 -1
    outer loop
      vertex 3.63095 11.1749 0
      vertex 4.86702 14.9791 0
      vertex 7.875 13.6399 0
    endloop
  endfacet
  facet normal 0 0 -1
    outer loop
      vertex 5.875 10.1758 0
      vertex 7.875 13.6399 0
      vertex 10.5388 11.7045 0
    endloop
  endfacet
  facet normal 0 0 -1
    outer loop
      vertex 7.86228 8.73195 0
      vertex 10.5388 11.7045 0
      vertex 12.742 9.25762 0
    endloop
  endfacet
  facet normal 0 0 -1
    outer loop
      vertex 9.50595 6.90648 0
      vertex 12.742 9.25762 0
      vertex 14.3883 6.4061 0
    endloop
  endfacet
  facet normal 0 0 -1
    outer loop
      vertex 10.7342 4.77916 0
      vertex 14.3883 6.4061 0
      vertex 15.4058 3.27461 0
    endloop
  endfacet
  facet normal 0 0 -1
    outer loop
      vertex 11.75 0 0
      vertex 15.4058 3.27461 0
      vertex 15.75 0 0
    endloop
  endfacet
  facet normal 0 0 -1
    outer loop
      vertex 11.4932 -2.44296 0
      vertex 15.75 0 0
      vertex 15.4058 -3.27461 0
    endloop
  endfacet
  facet normal 0 0 -1
    outer loop
      vertex 10.7342 -4.77916 0
      vertex 15.4058 -3.27461 0
      vertex 14.3883 -6.4061 0
    endloop
  endfacet
  facet normal 0 0 -1
    outer loop
      vertex 9.50595 -6.90648 0
      vertex 14.3883 -6.4061 0
      vertex 12.742 -9.25762 0
    endloop
  endfacet
  facet normal 0 0 -1
    outer loop
      vertex 5.875 -10.1758 0
      vertex 12.742 -9.25762 0
      vertex 10.5388 -11.7045 0
    endloop
  endfacet
  facet normal 0 0 -1
    outer loop
      vertex 3.63095 -11.1749 0
      vertex 10.5388 -11.7045 0
      vertex 7.875 -13.6399 0
    endloop
  endfacet
  facet normal 0 0 -1
    outer loop
      vertex 1.22821 -11.6856 0
      vertex 7.875 -13.6399 0
      vertex 4.86702 -14.9791 0
    endloop
  endfacet
  facet normal 0 0 -1
    outer loop
      vertex -3.63095 -11.1749 0
      vertex 4.86702 -14.9791 0
      vertex 1.64632 -15.6637 0
    endloop
  endfacet
  facet normal 0 0 -1
    outer loop
      vertex -15.4058 -3.27461 0
      vertex 1.64632 -15.6637 0
      vertex -1.64632 -15.6637 0
    endloop
  endfacet
  facet normal 0 0 -1
    outer loop
      vertex -15.4058 -3.27461 0
      vertex -1.64632 -15.6637 0
      vertex -4.86702 -14.9791 0
    endloop
  endfacet
  facet normal 0 0 -1
    outer loop
      vertex -15.4058 -3.27461 0
      vertex -4.86702 -14.9791 0
      vertex -7.875 -13.6399 0
    endloop
  endfacet
  facet normal 0 0 -1
    outer loop
      vertex -15.4058 -3.27461 0
      vertex -7.875 -13.6399 0
      vertex -10.5388 -11.7045 0
    endloop
  endfacet
  facet normal 0 0 -1
    outer loop
      vertex -15.4058 -3.27461 0
      vertex -10.5388 -11.7045 0
      vertex -12.742 -9.25762 0
    endloop
  endfacet
  facet normal 0 0 -1
    outer loop
      vertex -15.4058 -3.27461 0
      vertex -12.742 -9.25762 0
      vertex -14.3883 -6.4061 0
    endloop
  endfacet
  facet normal 0 0 -1
    outer loop
      vertex -11.4932 -2.44296 0
      vertex -15.4058 -3.27461 0
      vertex -11.75 0 0
    endloop
  endfacet
  facet normal 0 0 -1
    outer loop
      vertex 11.4932 -2.44296 0
      vertex 15.4058 -3.27461 0
      vertex 10.7342 -4.77916 0
    endloop
  endfacet
  facet normal 0 0 -1
    outer loop
      vertex -10.7342 -4.77916 0
      vertex -15.4058 -3.27461 0
      vertex -11.4932 -2.44296 0
    endloop
  endfacet
  facet normal 0 0 -1
    outer loop
      vertex -9.50595 -6.90648 0
      vertex -15.4058 -3.27461 0
      vertex -10.7342 -4.77916 0
    endloop
  endfacet
  facet normal 0 0 -1
    outer loop
      vertex -3.63095 -11.1749 0
      vertex 1.64632 -15.6637 0
      vertex -5.875 -10.1758 0
    endloop
  endfacet
  facet normal 0 0 -1
    outer loop
      vertex -15.4058 -3.27461 0
      vertex -9.50595 -6.90648 0
      vertex -7.86228 -8.73195 0
    endloop
  endfacet
  facet normal 0 0 -1
    outer loop
      vertex -15.4058 -3.27461 0
      vertex -7.86228 -8.73195 0
      vertex 1.64632 -15.6637 0
    endloop
  endfacet
  facet normal 0 0 -1
    outer loop
      vertex -7.86228 -8.73195 0
      vertex -5.875 -10.1758 0
      vertex 1.64632 -15.6637 0
    endloop
  endfacet
  facet normal 0 0 -1
    outer loop
      vertex -1.22821 -11.6856 0
      vertex 4.86702 -14.9791 0
      vertex -3.63095 -11.1749 0
    endloop
  endfacet
  facet normal 0 0 -1
    outer loop
      vertex 1.22821 -11.6856 0
      vertex 4.86702 -14.9791 0
      vertex -1.22821 -11.6856 0
    endloop
  endfacet
  facet normal 0 0 -1
    outer loop
      vertex 7.86228 -8.73195 0
      vertex 12.742 -9.25762 0
      vertex 5.875 -10.1758 0
    endloop
  endfacet
  facet normal 0 0 -1
    outer loop
      vertex 9.50595 -6.90648 0
      vertex 12.742 -9.25762 0
      vertex 7.86228 -8.73195 0
    endloop
  endfacet
  facet normal 0 0 -1
    outer loop
      vertex 5.875 -10.1758 0
      vertex 10.5388 -11.7045 0
      vertex 3.63095 -11.1749 0
    endloop
  endfacet
  facet normal 0 0 -1
    outer loop
      vertex 3.63095 -11.1749 0
      vertex 7.875 -13.6399 0
      vertex 1.22821 -11.6856 0
    endloop
  endfacet
  facet normal 0 0 -1
    outer loop
      vertex 11.4932 2.44296 0
      vertex 15.4058 3.27461 0
      vertex 11.75 0 0
    endloop
  endfacet
  facet normal 0 0 -1
    outer loop
      vertex 9.50595 6.90648 0
      vertex 14.3883 6.4061 0
      vertex 10.7342 4.77916 0
    endloop
  endfacet
  facet normal 0 0 -1
    outer loop
      vertex 10.7342 4.77916 0
      vertex 15.4058 3.27461 0
      vertex 11.4932 2.44296 0
    endloop
  endfacet
  facet normal 0 0 -1
    outer loop
      vertex 11.75 0 0
      vertex 15.75 0 0
      vertex 11.4932 -2.44296 0
    endloop
  endfacet
  facet normal 0 0 -1
    outer loop
      vertex 1.22821 11.6856 0
      vertex 4.86702 14.9791 0
      vertex 3.63095 11.1749 0
    endloop
  endfacet
  facet normal 0 0 -1
    outer loop
      vertex -1.22821 11.6856 0
      vertex 4.86702 14.9791 0
      vertex 1.22821 11.6856 0
    endloop
  endfacet
  facet normal 0 0 -1
    outer loop
      vertex 3.63095 11.1749 0
      vertex 7.875 13.6399 0
      vertex 5.875 10.1758 0
    endloop
  endfacet
  facet normal 0 0 -1
    outer loop
      vertex 5.875 10.1758 0
      vertex 10.5388 11.7045 0
      vertex 7.86228 8.73195 0
    endloop
  endfacet
  facet normal 0 0 -1
    outer loop
      vertex -7.86228 8.73195 0
      vertex -4.86702 14.9791 0
      vertex -5.875 10.1758 0
    endloop
  endfacet
  facet normal 0 0 -1
    outer loop
      vertex -9.50595 6.90648 0
      vertex -4.86702 14.9791 0
      vertex -7.86228 8.73195 0
    endloop
  endfacet
  facet normal 0 0 -1
    outer loop
      vertex -15.4058 -3.27461 0
      vertex -4.86702 14.9791 0
      vertex -9.50595 6.90648 0
    endloop
  endfacet
  facet normal 0 0 -1
    outer loop
      vertex -15.4058 -3.27461 0
      vertex -9.50595 6.90648 0
      vertex -10.7342 4.77916 0
    endloop
  endfacet
  facet normal 0 0 -1
    outer loop
      vertex 7.86228 8.73195 0
      vertex 12.742 9.25762 0
      vertex 9.50595 6.90648 0
    endloop
  endfacet
  facet normal 0 0 -1
    outer loop
      vertex -11.75 0 0
      vertex -15.4058 -3.27461 0
      vertex -11.4932 2.44296 0
    endloop
  endfacet
  facet normal 0 0 -1
    outer loop
      vertex -11.4932 2.44296 0
      vertex -15.4058 -3.27461 0
      vertex -10.7342 4.77916 0
    endloop
  endfacet
  facet normal 0 0 -1
    outer loop
      vertex -5.875 10.1758 0
      vertex -1.64632 15.6637 0
      vertex -3.63095 11.1749 0
    endloop
  endfacet
  facet normal 0 0 -1
    outer loop
      vertex -3.63095 11.1749 0
      vertex 1.64632 15.6637 0
      vertex -1.22821 11.6856 0
    endloop
  endfacet
  facet normal 0 0 -1
    outer loop
      vertex 10.7342 -4.77916 0
      vertex 14.3883 -6.4061 0
      vertex 9.50595 -6.90648 0
    endloop
  endfacet
  facet normal -0.994522 0.104528 0
    outer loop
      vertex -15.75 0 0
      vertex -15.75 0 3
      vertex -15.4058 3.27461 0
    endloop
  endfacet
  facet normal -0.994522 0.104528 0
    outer loop
      vertex -15.4058 3.27461 0
      vertex -15.75 0 3
      vertex -15.4058 3.27461 3
    endloop
  endfacet
  facet normal -0.994522 -0.104528 0
    outer loop
      vertex -15.75 0 0
      vertex -15.4058 -3.27461 0
      vertex -15.75 0 3
    endloop
  endfacet
  facet normal -0.994522 -0.104528 0
    outer loop
      vertex -15.75 0 3
      vertex -15.4058 -3.27461 0
      vertex -15.4058 -3.27461 3
    endloop
  endfacet
  facet normal -0.951056 -0.309017 0
    outer loop
      vertex -15.4058 -3.27461 0
      vertex -14.3883 -6.4061 0
      vertex -15.4058 -3.27461 3
    endloop
  endfacet
  facet normal -0.951056 -0.309017 0
    outer loop
      vertex -15.4058 -3.27461 3
      vertex -14.3883 -6.4061 0
      vertex -14.3883 -6.4061 3
    endloop
  endfacet
  facet normal -0.866025 -0.5 0
    outer loop
      vertex -14.3883 -6.4061 0
      vertex -12.742 -9.25762 0
      vertex -14.3883 -6.4061 3
    endloop
  endfacet
  facet normal -0.866025 -0.5 0
    outer loop
      vertex -14.3883 -6.4061 3
      vertex -12.742 -9.25762 0
      vertex -12.742 -9.25762 3
    endloop
  endfacet
  facet normal -0.743145 -0.669131 0
    outer loop
      vertex -12.742 -9.25762 0
      vertex -10.5388 -11.7045 0
      vertex -12.742 -9.25762 3
    endloop
  endfacet
  facet normal -0.743145 -0.669131 0
    outer loop
      vertex -12.742 -9.25762 3
      vertex -10.5388 -11.7045 0
      vertex -10.5388 -11.7045 3
    endloop
  endfacet
  facet normal -0.587785 -0.809017 0
    outer loop
      vertex -10.5388 -11.7045 3
      vertex -10.5388 -11.7045 0
      vertex -7.875 -13.6399 0
    endloop
  endfacet
  facet normal -0.587785 -0.809017 0
    outer loop
      vertex -7.875 -13.6399 3
      vertex -10.5388 -11.7045 3
      vertex -7.875 -13.6399 0
    endloop
  endfacet
  facet normal -0.406737 -0.913545 0
    outer loop
      vertex -7.875 -13.6399 3
      vertex -7.875 -13.6399 0
      vertex -4.86702 -14.9791 0
    endloop
  endfacet
  facet normal -0.406737 -0.913545 0
    outer loop
      vertex -4.86702 -14.9791 3
      vertex -7.875 -13.6399 3
      vertex -4.86702 -14.9791 0
    endloop
  endfacet
  facet normal -0.207912 -0.978148 0
    outer loop
      vertex -4.86702 -14.9791 3
      vertex -4.86702 -14.9791 0
      vertex -1.64632 -15.6637 0
    endloop
  endfacet
  facet normal -0.207912 -0.978148 0
    outer loop
      vertex -1.64632 -15.6637 3
      vertex -4.86702 -14.9791 3
      vertex -1.64632 -15.6637 0
    endloop
  endfacet
  facet normal 0 -1 0
    outer loop
      vertex -1.64632 -15.6637 3
      vertex -1.64632 -15.6637 0
      vertex 1.64632 -15.6637 0
    endloop
  endfacet
  facet normal 0 -1 0
    outer loop
      vertex 1.64632 -15.6637 3
      vertex -1.64632 -15.6637 3
      vertex 1.64632 -15.6637 0
    endloop
  endfacet
  facet normal 0.207912 -0.978148 0
    outer loop
      vertex 1.64632 -15.6637 3
      vertex 1.64632 -15.6637 0
      vertex 4.86702 -14.9791 0
    endloop
  endfacet
  facet normal 0.207912 -0.978148 0
    outer loop
      vertex 4.86702 -14.9791 3
      vertex 1.64632 -15.6637 3
      vertex 4.86702 -14.9791 0
    endloop
  endfacet
  facet normal 0.406737 -0.913545 0
    outer loop
      vertex 4.86702 -14.9791 3
      vertex 4.86702 -14.9791 0
      vertex 7.875 -13.6399 0
    endloop
  endfacet
  facet normal 0.406737 -0.913545 0
    outer loop
      vertex 7.875 -13.6399 3
      vertex 4.86702 -14.9791 3
      vertex 7.875 -13.6399 0
    endloop
  endfacet
  facet normal 0.587785 -0.809017 0
    outer loop
      vertex 7.875 -13.6399 3
      vertex 7.875 -13.6399 0
      vertex 10.5388 -11.7045 0
    endloop
  endfacet
  facet normal 0.587785 -0.809017 0
    outer loop
      vertex 10.5388 -11.7045 3
      vertex 7.875 -13.6399 3
      vertex 10.5388 -11.7045 0
    endloop
  endfacet
  facet normal 0.743145 -0.669131 0
    outer loop
      vertex 10.5388 -11.7045 3
      vertex 10.5388 -11.7045 0
      vertex 12.742 -9.25762 0
    endloop
  endfacet
  facet normal 0.743145 -0.669131 0
    outer loop
      vertex 12.742 -9.25762 3
      vertex 10.5388 -11.7045 3
      vertex 12.742 -9.25762 0
    endloop
  endfacet
  facet normal 0.866025 -0.5 0
    outer loop
      vertex 12.742 -9.25762 3
      vertex 12.742 -9.25762 0
      vertex 14.3883 -6.4061 0
    endloop
  endfacet
  facet normal 0.866025 -0.5 0
    outer loop
      vertex 14.3883 -6.4061 3
      vertex 12.742 -9.25762 3
      vertex 14.3883 -6.4061 0
    endloop
  endfacet
  facet normal 0.951056 -0.309017 0
    outer loop
      vertex 14.3883 -6.4061 3
      vertex 14.3883 -6.4061 0
      vertex 15.4058 -3.27461 0
    endloop
  endfacet
  facet normal 0.951056 -0.309017 0
    outer loop
      vertex 15.4058 -3.27461 3
      vertex 14.3883 -6.4061 3
      vertex 15.4058 -3.27461 0
    endloop
  endfacet
  facet normal 0.994522 -0.104528 0
    outer loop
      vertex 15.4058 -3.27461 3
      vertex 15.4058 -3.27461 0
      vertex 15.75 0 0
    endloop
  endfacet
  facet normal 0.994522 -0.104528 0
    outer loop
      vertex 15.75 0 3
      vertex 15.4058 -3.27461 3
      vertex 15.75 0 0
    endloop
  endfacet
  facet normal 0.994522 0.104528 0
    outer loop
      vertex 15.75 0 0
      vertex 15.4058 3.27461 0
      vertex 15.4058 3.27461 3
    endloop
  endfacet
  facet normal 0.994522 0.104528 0
    outer loop
      vertex 15.75 0 3
      vertex 15.75 0 0
      vertex 15.4058 3.27461 3
    endloop
  endfacet
  facet normal 0.951056 0.309017 0
    outer loop
      vertex 15.4058 3.27461 0
      vertex 14.3883 6.4061 0
      vertex 14.3883 6.4061 3
    endloop
  endfacet
  facet normal 0.951056 0.309017 0
    outer loop
      vertex 15.4058 3.27461 3
      vertex 15.4058 3.27461 0
      vertex 14.3883 6.4061 3
    endloop
  endfacet
  facet normal 0.866025 0.5 0
    outer loop
      vertex 14.3883 6.4061 0
      vertex 12.742 9.25762 0
      vertex 12.742 9.25762 3
    endloop
  endfacet
  facet normal 0.866025 0.5 0
    outer loop
      vertex 14.3883 6.4061 3
      vertex 14.3883 6.4061 0
      vertex 12.742 9.25762 3
    endloop
  endfacet
  facet normal 0.743145 0.669131 0
    outer loop
      vertex 12.742 9.25762 0
      vertex 10.5388 11.7045 0
      vertex 10.5388 11.7045 3
    endloop
  endfacet
  facet normal 0.743145 0.669131 0
    outer loop
      vertex 12.742 9.25762 3
      vertex 12.742 9.25762 0
      vertex 10.5388 11.7045 3
    endloop
  endfacet
  facet normal 0.587785 0.809017 0
    outer loop
      vertex 7.875 13.6399 0
      vertex 7.875 13.6399 3
      vertex 10.5388 11.7045 0
    endloop
  endfacet
  facet normal 0.587785 0.809017 0
    outer loop
      vertex 10.5388 11.7045 0
      vertex 7.875 13.6399 3
      vertex 10.5388 11.7045 3
    endloop
  endfacet
  facet normal 0.406737 0.913545 0
    outer loop
      vertex 4.86702 14.9791 0
      vertex 4.86702 14.9791 3
      vertex 7.875 13.6399 0
    endloop
  endfacet
  facet normal 0.406737 0.913545 0
    outer loop
      vertex 7.875 13.6399 0
      vertex 4.86702 14.9791 3
      vertex 7.875 13.6399 3
    endloop
  endfacet
  facet normal 0.207912 0.978148 0
    outer loop
      vertex 1.64632 15.6637 0
      vertex 1.64632 15.6637 3
      vertex 4.86702 14.9791 0
    endloop
  endfacet
  facet normal 0.207912 0.978148 0
    outer loop
      vertex 4.86702 14.9791 0
      vertex 1.64632 15.6637 3
      vertex 4.86702 14.9791 3
    endloop
  endfacet
  facet normal 0 1 0
    outer loop
      vertex -1.64632 15.6637 0
      vertex -1.64632 15.6637 3
      vertex 1.64632 15.6637 0
    endloop
  endfacet
  facet normal 0 1 0
    outer loop
      vertex 1.64632 15.6637 0
      vertex -1.64632 15.6637 3
      vertex 1.64632 15.6637 3
    endloop
  endfacet
  facet normal -0.207912 0.978148 0
    outer loop
      vertex -4.86702 14.9791 0
      vertex -4.86702 14.9791 3
      vertex -1.64632 15.6637 0
    endloop
  endfacet
  facet normal -0.207912 0.978148 0
    outer loop
      vertex -1.64632 15.6637 0
      vertex -4.86702 14.9791 3
      vertex -1.64632 15.6637 3
    endloop
  endfacet
  facet normal -0.406737 0.913545 0
    outer loop
      vertex -7.875 13.6399 0
      vertex -7.875 13.6399 3
      vertex -4.86702 14.9791 0
    endloop
  endfacet
  facet normal -0.406737 0.913545 0
    outer loop
      vertex -4.86702 14.9791 0
      vertex -7.875 13.6399 3
      vertex -4.86702 14.9791 3
    endloop
  endfacet
  facet normal -0.587785 0.809017 0
    outer loop
      vertex -10.5388 11.7045 0
      vertex -10.5388 11.7045 3
      vertex -7.875 13.6399 0
    endloop
  endfacet
  facet normal -0.587785 0.809017 0
    outer loop
      vertex -7.875 13.6399 0
      vertex -10.5388 11.7045 3
      vertex -7.875 13.6399 3
    endloop
  endfacet
  facet normal -0.743145 0.669131 0
    outer loop
      vertex -12.742 9.25762 0
      vertex -12.742 9.25762 3
      vertex -10.5388 11.7045 0
    endloop
  endfacet
  facet normal -0.743145 0.669131 0
    outer loop
      vertex -10.5388 11.7045 0
      vertex -12.742 9.25762 3
      vertex -10.5388 11.7045 3
    endloop
  endfacet
  facet normal -0.866025 0.5 0
    outer loop
      vertex -14.3883 6.4061 0
      vertex -14.3883 6.4061 3
      vertex -12.742 9.25762 0
    endloop
  endfacet
  facet normal -0.866025 0.5 0
    outer loop
      vertex -12.742 9.25762 0
      vertex -14.3883 6.4061 3
      vertex -12.742 9.25762 3
    endloop
  endfacet
  facet normal -0.951056 0.309017 0
    outer loop
      vertex -15.4058 3.27461 0
      vertex -15.4058 3.27461 3
      vertex -14.3883 6.4061 0
    endloop
  endfacet
  facet normal -0.951056 0.309017 0
    outer loop
      vertex -14.3883 6.4061 0
      vertex -15.4058 3.27461 3
      vertex -14.3883 6.4061 3
    endloop
  endfacet
  facet normal 0.994522 0.104529 0
    outer loop
      vertex -11.75 0 23
      vertex -11.4932 -2.44296 23
      vertex -11.4932 -2.44296 0
    endloop
  endfacet
  facet normal 0.994522 0.104529 0
    outer loop
      vertex -11.75 0 0
      vertex -11.75 0 23
      vertex -11.4932 -2.44296 0
    endloop
  endfacet
  facet normal 0.994522 -0.104529 0
    outer loop
      vertex -11.4932 2.44296 0
      vertex -11.4932 2.44296 23
      vertex -11.75 0 23
    endloop
  endfacet
  facet normal 0.994522 -0.104529 0
    outer loop
      vertex -11.75 0 0
      vertex -11.4932 2.44296 0
      vertex -11.75 0 23
    endloop
  endfacet
  facet normal 0.951057 -0.309017 0
    outer loop
      vertex -10.7342 4.77916 0
      vertex -10.7342 4.77916 23
      vertex -11.4932 2.44296 23
    endloop
  endfacet
  facet normal 0.951057 -0.309017 0
    outer loop
      vertex -11.4932 2.44296 0
      vertex -10.7342 4.77916 0
      vertex -11.4932 2.44296 23
    endloop
  endfacet
  facet normal 0.866025 -0.5 0
    outer loop
      vertex -9.50595 6.90648 0
      vertex -9.50595 6.90648 23
      vertex -10.7342 4.77916 23
    endloop
  endfacet
  facet normal 0.866025 -0.5 0
    outer loop
      vertex -10.7342 4.77916 0
      vertex -9.50595 6.90648 0
      vertex -10.7342 4.77916 23
    endloop
  endfacet
  facet normal 0.743145 -0.669131 0
    outer loop
      vertex -7.86228 8.73195 0
      vertex -7.86228 8.73195 23
      vertex -9.50595 6.90648 23
    endloop
  endfacet
  facet normal 0.743145 -0.669131 0
    outer loop
      vertex -9.50595 6.90648 0
      vertex -7.86228 8.73195 0
      vertex -9.50595 6.90648 23
    endloop
  endfacet
  facet normal 0.587785 -0.809017 0
    outer loop
      vertex -5.875 10.1758 0
      vertex -5.875 10.1758 23
      vertex -7.86228 8.73195 23
    endloop
  endfacet
  facet normal 0.587785 -0.809017 0
    outer loop
      vertex -7.86228 8.73195 0
      vertex -5.875 10.1758 0
      vertex -7.86228 8.73195 23
    endloop
  endfacet
  facet normal 0.406737 -0.913545 0
    outer loop
      vertex -3.63095 11.1749 0
      vertex -3.63095 11.1749 23
      vertex -5.875 10.1758 23
    endloop
  endfacet
  facet normal 0.406737 -0.913545 0
    outer loop
      vertex -5.875 10.1758 0
      vertex -3.63095 11.1749 0
      vertex -5.875 10.1758 23
    endloop
  endfacet
  facet normal 0.207912 -0.978148 0
    outer loop
      vertex -1.22821 11.6856 0
      vertex -1.22821 11.6856 23
      vertex -3.63095 11.1749 23
    endloop
  endfacet
  facet normal 0.207912 -0.978148 0
    outer loop
      vertex -3.63095 11.1749 0
      vertex -1.22821 11.6856 0
      vertex -3.63095 11.1749 23
    endloop
  endfacet
  facet normal 0 -1 0
    outer loop
      vertex 1.22821 11.6856 0
      vertex 1.22821 11.6856 23
      vertex -1.22821 11.6856 23
    endloop
  endfacet
  facet normal 0 -1 0
    outer loop
      vertex -1.22821 11.6856 0
      vertex 1.22821 11.6856 0
      vertex -1.22821 11.6856 23
    endloop
  endfacet
  facet normal -0.207912 -0.978148 0
    outer loop
      vertex 3.63095 11.1749 0
      vertex 3.63095 11.1749 23
      vertex 1.22821 11.6856 23
    endloop
  endfacet
  facet normal -0.207912 -0.978148 0
    outer loop
      vertex 1.22821 11.6856 0
      vertex 3.63095 11.1749 0
      vertex 1.22821 11.6856 23
    endloop
  endfacet
  facet normal -0.406737 -0.913545 0
    outer loop
      vertex 5.875 10.1758 0
      vertex 5.875 10.1758 23
      vertex 3.63095 11.1749 23
    endloop
  endfacet
  facet normal -0.406737 -0.913545 0
    outer loop
      vertex 3.63095 11.1749 0
      vertex 5.875 10.1758 0
      vertex 3.63095 11.1749 23
    endloop
  endfacet
  facet normal -0.587785 -0.809017 0
    outer loop
      vertex 7.86228 8.73195 0
      vertex 7.86228 8.73195 23
      vertex 5.875 10.1758 23
    endloop
  endfacet
  facet normal -0.587785 -0.809017 0
    outer loop
      vertex 5.875 10.1758 0
      vertex 7.86228 8.73195 0
      vertex 5.875 10.1758 23
    endloop
  endfacet
  facet normal -0.743145 -0.669131 0
    outer loop
      vertex 9.50595 6.90648 23
      vertex 7.86228 8.73195 23
      vertex 9.50595 6.90648 0
    endloop
  endfacet
  facet normal -0.743145 -0.669131 0
    outer loop
      vertex 9.50595 6.90648 0
      vertex 7.86228 8.73195 23
      vertex 7.86228 8.73195 0
    endloop
  endfacet
  facet normal -0.866025 -0.5 0
    outer loop
      vertex 10.7342 4.77916 23
      vertex 9.50595 6.90648 23
      vertex 10.7342 4.77916 0
    endloop
  endfacet
  facet normal -0.866025 -0.5 0
    outer loop
      vertex 10.7342 4.77916 0
      vertex 9.50595 6.90648 23
      vertex 9.50595 6.90648 0
    endloop
  endfacet
  facet normal -0.951057 -0.309017 0
    outer loop
      vertex 11.4932 2.44296 23
      vertex 10.7342 4.77916 23
      vertex 11.4932 2.44296 0
    endloop
  endfacet
  facet normal -0.951057 -0.309017 0
    outer loop
      vertex 11.4932 2.44296 0
      vertex 10.7342 4.77916 23
      vertex 10.7342 4.77916 0
    endloop
  endfacet
  facet normal -0.994522 -0.104529 0
    outer loop
      vertex 11.75 0 23
      vertex 11.4932 2.44296 23
      vertex 11.75 0 0
    endloop
  endfacet
  facet normal -0.994522 -0.104529 0
    outer loop
      vertex 11.75 0 0
      vertex 11.4932 2.44296 23
      vertex 11.4932 2.44296 0
    endloop
  endfacet
  facet normal -0.994522 0.104529 0
    outer loop
      vertex 11.75 0 23
      vertex 11.75 0 0
      vertex 11.4932 -2.44296 23
    endloop
  endfacet
  facet normal -0.994522 0.104529 0
    outer loop
      vertex 11.4932 -2.44296 23
      vertex 11.75 0 0
      vertex 11.4932 -2.44296 0
    endloop
  endfacet
  facet normal -0.951057 0.309017 0
    outer loop
      vertex 11.4932 -2.44296 23
      vertex 11.4932 -2.44296 0
      vertex 10.7342 -4.77916 23
    endloop
  endfacet
  facet normal -0.951057 0.309017 0
    outer loop
      vertex 10.7342 -4.77916 23
      vertex 11.4932 -2.44296 0
      vertex 10.7342 -4.77916 0
    endloop
  endfacet
  facet normal -0.866025 0.5 0
    outer loop
      vertex 10.7342 -4.77916 23
      vertex 10.7342 -4.77916 0
      vertex 9.50595 -6.90648 23
    endloop
  endfacet
  facet normal -0.866025 0.5 0
    outer loop
      vertex 9.50595 -6.90648 23
      vertex 10.7342 -4.77916 0
      vertex 9.50595 -6.90648 0
    endloop
  endfacet
  facet normal -0.743145 0.669131 0
    outer loop
      vertex 9.50595 -6.90648 23
      vertex 9.50595 -6.90648 0
      vertex 7.86228 -8.73195 23
    endloop
  endfacet
  facet normal -0.743145 0.669131 0
    outer loop
      vertex 7.86228 -8.73195 23
      vertex 9.50595 -6.90648 0
      vertex 7.86228 -8.73195 0
    endloop
  endfacet
  facet normal -0.587785 0.809017 0
    outer loop
      vertex 7.86228 -8.73195 23
      vertex 7.86228 -8.73195 0
      vertex 5.875 -10.1758 23
    endloop
  endfacet
  facet normal -0.587785 0.809017 0
    outer loop
      vertex 5.875 -10.1758 23
      vertex 7.86228 -8.73195 0
      vertex 5.875 -10.1758 0
    endloop
  endfacet
  facet normal -0.406737 0.913545 0
    outer loop
      vertex 5.875 -10.1758 23
      vertex 5.875 -10.1758 0
      vertex 3.63095 -11.1749 23
    endloop
  endfacet
  facet normal -0.406737 0.913545 0
    outer loop
      vertex 3.63095 -11.1749 23
      vertex 5.875 -10.1758 0
      vertex 3.63095 -11.1749 0
    endloop
  endfacet
  facet normal -0.207912 0.978148 0
    outer loop
      vertex 3.63095 -11.1749 23
      vertex 3.63095 -11.1749 0
      vertex 1.22821 -11.6856 23
    endloop
  endfacet
  facet normal -0.207912 0.978148 0
    outer loop
      vertex 1.22821 -11.6856 23
      vertex 3.63095 -11.1749 0
      vertex 1.22821 -11.6856 0
    endloop
  endfacet
  facet normal 0 1 0
    outer loop
      vertex 1.22821 -11.6856 23
      vertex 1.22821 -11.6856 0
      vertex -1.22821 -11.6856 23
    endloop
  endfacet
  facet normal 0 1 0
    outer loop
      vertex -1.22821 -11.6856 23
      vertex 1.22821 -11.6856 0
      vertex -1.22821 -11.6856 0
    endloop
  endfacet
  facet normal 0.207912 0.978148 0
    outer loop
      vertex -1.22821 -11.6856 23
      vertex -1.22821 -11.6856 0
      vertex -3.63095 -11.1749 23
    endloop
  endfacet
  facet normal 0.207912 0.978148 0
    outer loop
      vertex -3.63095 -11.1749 23
      vertex -1.22821 -11.6856 0
      vertex -3.63095 -11.1749 0
    endloop
  endfacet
  facet normal 0.406737 0.913545 0
    outer loop
      vertex -3.63095 -11.1749 23
      vertex -3.63095 -11.1749 0
      vertex -5.875 -10.1758 23
    endloop
  endfacet
  facet normal 0.406737 0.913545 0
    outer loop
      vertex -5.875 -10.1758 23
      vertex -3.63095 -11.1749 0
      vertex -5.875 -10.1758 0
    endloop
  endfacet
  facet normal 0.587785 0.809017 0
    outer loop
      vertex -5.875 -10.1758 23
      vertex -5.875 -10.1758 0
      vertex -7.86228 -8.73195 23
    endloop
  endfacet
  facet normal 0.587785 0.809017 0
    outer loop
      vertex -7.86228 -8.73195 23
      vertex -5.875 -10.1758 0
      vertex -7.86228 -8.73195 0
    endloop
  endfacet
  facet normal 0.743145 0.669131 0
    outer loop
      vertex -9.50595 -6.90648 23
      vertex -7.86228 -8.73195 23
      vertex -7.86228 -8.73195 0
    endloop
  endfacet
  facet normal 0.743145 0.669131 0
    outer loop
      vertex -9.50595 -6.90648 0
      vertex -9.50595 -6.90648 23
      vertex -7.86228 -8.73195 0
    endloop
  endfacet
  facet normal 0.866025 0.5 0
    outer loop
      vertex -10.7342 -4.77916 23
      vertex -9.50595 -6.90648 23
      vertex -9.50595 -6.90648 0
    endloop
  endfacet
  facet normal 0.866025 0.5 0
    outer loop
      vertex -10.7342 -4.77916 0
      vertex -10.7342 -4.77916 23
      vertex -9.50595 -6.90648 0
    endloop
  endfacet
  facet normal 0.951057 0.309017 0
    outer loop
      vertex -11.4932 -2.44296 23
      vertex -10.7342 -4.77916 23
      vertex -10.7342 -4.77916 0
    endloop
  endfacet
  facet normal 0.951057 0.309017 0
    outer loop
      vertex -11.4932 -2.44296 0
      vertex -11.4932 -2.44296 23
      vertex -10.7342 -4.77916 0
    endloop
  endfacet
  facet normal 0 0 1
    outer loop
      vertex -15.4058 3.27461 3
      vertex -15.75 0 3
      vertex -15.4058 -3.27461 3
    endloop
  endfacet
  facet normal 0 0 1
    outer loop
      vertex -12.742 -9.25762 3
      vertex -15.4058 3.27461 3
      vertex -14.3883 -6.4061 3
    endloop
  endfacet
  facet normal 0 0 1
    outer loop
      vertex -14.3883 -6.4061 3
      vertex -15.4058 3.27461 3
      vertex -15.4058 -3.27461 3
    endloop
  endfacet
  facet normal 0 0 1
    outer loop
      vertex -13.4495 -2.85879 3
      vertex -15.4058 3.27461 3
      vertex -12.742 -9.25762 3
    endloop
  endfacet
  facet normal 0 0 1
    outer loop
      vertex 11.124 -8.08205 3
      vertex 9.20055 -10.2182 3
      vertex 12.742 -9.25762 3
    endloop
  endfacet
  facet normal 0 0 1
    outer loop
      vertex -13.4495 2.85879 3
      vertex -12.5612 5.59263 3
      vertex -15.4058 3.27461 3
    endloop
  endfacet
  facet normal 0 0 1
    outer loop
      vertex -4.24898 -13.077 3
      vertex -6.875 -11.9078 3
      vertex -4.86702 -14.9791 3
    endloop
  endfacet
  facet normal 0 0 1
    outer loop
      vertex 12.5612 5.59263 3
      vertex 13.4495 2.85879 3
      vertex 15.4058 3.27461 3
    endloop
  endfacet
  facet normal 0 0 1
    outer loop
      vertex 11.124 8.08205 3
      vertex 12.5612 5.59263 3
      vertex 14.3883 6.4061 3
    endloop
  endfacet
  facet normal 0 0 1
    outer loop
      vertex 9.20055 10.2182 3
      vertex 11.124 8.08205 3
      vertex 12.742 9.25762 3
    endloop
  endfacet
  facet normal 0 0 1
    outer loop
      vertex 6.875 11.9078 3
      vertex 9.20055 10.2182 3
      vertex 10.5388 11.7045 3
    endloop
  endfacet
  facet normal 0 0 1
    outer loop
      vertex -1.43727 13.6747 3
      vertex 1.43727 13.6747 3
      vertex 1.64632 15.6637 3
    endloop
  endfacet
  facet normal 0 0 1
    outer loop
      vertex -6.875 11.9078 3
      vertex -4.24898 13.077 3
      vertex -1.64632 15.6637 3
    endloop
  endfacet
  facet normal 0 0 1
    outer loop
      vertex -10.5388 11.7045 3
      vertex -15.4058 3.27461 3
      vertex -7.875 13.6399 3
    endloop
  endfacet
  facet normal 0 0 1
    outer loop
      vertex -12.742 9.25762 3
      vertex -15.4058 3.27461 3
      vertex -10.5388 11.7045 3
    endloop
  endfacet
  facet normal 0 0 1
    outer loop
      vertex -14.3883 6.4061 3
      vertex -15.4058 3.27461 3
      vertex -12.742 9.25762 3
    endloop
  endfacet
  facet normal 0 0 1
    outer loop
      vertex -12.5612 -5.59263 3
      vertex -13.4495 -2.85879 3
      vertex -12.742 -9.25762 3
    endloop
  endfacet
  facet normal 0 0 1
    outer loop
      vertex 12.5612 -5.59263 3
      vertex 11.124 -8.08205 3
      vertex 14.3883 -6.4061 3
    endloop
  endfacet
  facet normal 0 0 1
    outer loop
      vertex 1.43727 13.6747 3
      vertex 4.24898 13.077 3
      vertex 4.86702 14.9791 3
    endloop
  endfacet
  facet normal 0 0 1
    outer loop
      vertex -7.875 13.6399 3
      vertex -15.4058 3.27461 3
      vertex -11.124 8.08205 3
    endloop
  endfacet
  facet normal 0 0 1
    outer loop
      vertex -7.875 13.6399 3
      vertex -9.20055 10.2182 3
      vertex -4.86702 14.9791 3
    endloop
  endfacet
  facet normal 0 0 1
    outer loop
      vertex -7.875 13.6399 3
      vertex -11.124 8.08205 3
      vertex -9.20055 10.2182 3
    endloop
  endfacet
  facet normal 0 0 1
    outer loop
      vertex -4.86702 14.9791 3
      vertex -6.875 11.9078 3
      vertex -1.64632 15.6637 3
    endloop
  endfacet
  facet normal 0 0 1
    outer loop
      vertex -9.20055 10.2182 3
      vertex -6.875 11.9078 3
      vertex -4.86702 14.9791 3
    endloop
  endfacet
  facet normal 0 0 1
    outer loop
      vertex -1.64632 15.6637 3
      vertex -4.24898 13.077 3
      vertex 1.64632 15.6637 3
    endloop
  endfacet
  facet normal 0 0 1
    outer loop
      vertex -4.24898 13.077 3
      vertex -1.43727 13.6747 3
      vertex 1.64632 15.6637 3
    endloop
  endfacet
  facet normal 0 0 1
    outer loop
      vertex 1.64632 15.6637 3
      vertex 1.43727 13.6747 3
      vertex 4.86702 14.9791 3
    endloop
  endfacet
  facet normal 0 0 1
    outer loop
      vertex 13.4495 2.85879 3
      vertex 13.75 0 3
      vertex 15.75 0 3
    endloop
  endfacet
  facet normal 0 0 1
    outer loop
      vertex 4.86702 14.9791 3
      vertex 4.24898 13.077 3
      vertex 7.875 13.6399 3
    endloop
  endfacet
  facet normal 0 0 1
    outer loop
      vertex -12.5612 5.59263 3
      vertex -11.124 8.08205 3
      vertex -15.4058 3.27461 3
    endloop
  endfacet
  facet normal 0 0 1
    outer loop
      vertex 7.875 13.6399 3
      vertex 6.875 11.9078 3
      vertex 10.5388 11.7045 3
    endloop
  endfacet
  facet normal 0 0 1
    outer loop
      vertex 10.5388 11.7045 3
      vertex 9.20055 10.2182 3
      vertex 12.742 9.25762 3
    endloop
  endfacet
  facet normal 0 0 1
    outer loop
      vertex 12.742 9.25762 3
      vertex 11.124 8.08205 3
      vertex 14.3883 6.4061 3
    endloop
  endfacet
  facet normal 0 0 1
    outer loop
      vertex 14.3883 6.4061 3
      vertex 12.5612 5.59263 3
      vertex 15.4058 3.27461 3
    endloop
  endfacet
  facet normal 0 0 1
    outer loop
      vertex 15.4058 3.27461 3
      vertex 13.4495 2.85879 3
      vertex 15.75 0 3
    endloop
  endfacet
  facet normal 0 0 1
    outer loop
      vertex 15.75 0 3
      vertex 13.75 0 3
      vertex 15.4058 -3.27461 3
    endloop
  endfacet
  facet normal 0 0 1
    outer loop
      vertex 15.4058 -3.27461 3
      vertex 13.4495 -2.85879 3
      vertex 14.3883 -6.4061 3
    endloop
  endfacet
  facet normal 0 0 1
    outer loop
      vertex 4.24898 13.077 3
      vertex 6.875 11.9078 3
      vertex 7.875 13.6399 3
    endloop
  endfacet
  facet normal 0 0 1
    outer loop
      vertex 13.4495 -2.85879 3
      vertex 12.5612 -5.59263 3
      vertex 14.3883 -6.4061 3
    endloop
  endfacet
  facet normal 0 0 1
    outer loop
      vertex 14.3883 -6.4061 3
      vertex 11.124 -8.08205 3
      vertex 12.742 -9.25762 3
    endloop
  endfacet
  facet normal 0 0 1
    outer loop
      vertex 12.742 -9.25762 3
      vertex 9.20055 -10.2182 3
      vertex 10.5388 -11.7045 3
    endloop
  endfacet
  facet normal 0 0 1
    outer loop
      vertex 10.5388 -11.7045 3
      vertex 6.875 -11.9078 3
      vertex 7.875 -13.6399 3
    endloop
  endfacet
  facet normal 0 0 1
    outer loop
      vertex 7.875 -13.6399 3
      vertex 4.24898 -13.077 3
      vertex 4.86702 -14.9791 3
    endloop
  endfacet
  facet normal 0 0 1
    outer loop
      vertex 4.86702 -14.9791 3
      vertex 1.43727 -13.6747 3
      vertex 1.64632 -15.6637 3
    endloop
  endfacet
  facet normal 0 0 1
    outer loop
      vertex 1.64632 -15.6637 3
      vertex -1.43727 -13.6747 3
      vertex -1.64632 -15.6637 3
    endloop
  endfacet
  facet normal 0 0 1
    outer loop
      vertex 13.75 0 3
      vertex 13.4495 -2.85879 3
      vertex 15.4058 -3.27461 3
    endloop
  endfacet
  facet normal 0 0 1
    outer loop
      vertex -1.64632 -15.6637 3
      vertex -4.24898 -13.077 3
      vertex -4.86702 -14.9791 3
    endloop
  endfacet
  facet normal 0 0 1
    outer loop
      vertex -4.86702 -14.9791 3
      vertex -6.875 -11.9078 3
      vertex -7.875 -13.6399 3
    endloop
  endfacet
  facet normal 0 0 1
    outer loop
      vertex -6.875 -11.9078 3
      vertex -9.20055 -10.2182 3
      vertex -7.875 -13.6399 3
    endloop
  endfacet
  facet normal 0 0 1
    outer loop
      vertex -7.875 -13.6399 3
      vertex -11.124 -8.08205 3
      vertex -10.5388 -11.7045 3
    endloop
  endfacet
  facet normal 0 0 1
    outer loop
      vertex -10.5388 -11.7045 3
      vertex -12.5612 -5.59263 3
      vertex -12.742 -9.25762 3
    endloop
  endfacet
  facet normal 0 0 1
    outer loop
      vertex -13.4495 -2.85879 3
      vertex -13.75 0 3
      vertex -15.4058 3.27461 3
    endloop
  endfacet
  facet normal 0 0 1
    outer loop
      vertex 9.20055 -10.2182 3
      vertex 6.875 -11.9078 3
      vertex 10.5388 -11.7045 3
    endloop
  endfacet
  facet normal 0 0 1
    outer loop
      vertex 6.875 -11.9078 3
      vertex 4.24898 -13.077 3
      vertex 7.875 -13.6399 3
    endloop
  endfacet
  facet normal 0 0 1
    outer loop
      vertex 4.24898 -13.077 3
      vertex 1.43727 -13.6747 3
      vertex 4.86702 -14.9791 3
    endloop
  endfacet
  facet normal 0 0 1
    outer loop
      vertex 1.43727 -13.6747 3
      vertex -1.43727 -13.6747 3
      vertex 1.64632 -15.6637 3
    endloop
  endfacet
  facet normal 0 0 1
    outer loop
      vertex -1.43727 -13.6747 3
      vertex -4.24898 -13.077 3
      vertex -1.64632 -15.6637 3
    endloop
  endfacet
  facet normal 0 0 1
    outer loop
      vertex -11.124 -8.08205 3
      vertex -12.5612 -5.59263 3
      vertex -10.5388 -11.7045 3
    endloop
  endfacet
  facet normal 0 0 1
    outer loop
      vertex -9.20055 -10.2182 3
      vertex -11.124 -8.08205 3
      vertex -7.875 -13.6399 3
    endloop
  endfacet
  facet normal 0 0 1
    outer loop
      vertex -13.75 0 3
      vertex -13.4495 2.85879 3
      vertex -15.4058 3.27461 3
    endloop
  endfacet
  facet normal 0 0 1
    outer loop
      vertex -13.4495 2.85879 23
      vertex -13.75 0 23
      vertex -13.4495 -2.85879 23
    endloop
  endfacet
  facet normal 0 0 1
    outer loop
      vertex -11.124 -8.08205 23
      vertex -13.4495 2.85879 23
      vertex -12.5612 -5.59263 23
    endloop
  endfacet
  facet normal 0 0 1
    outer loop
      vertex -12.5612 -5.59263 23
      vertex -13.4495 2.85879 23
      vertex -13.4495 -2.85879 23
    endloop
  endfacet
  facet normal 0 0 1
    outer loop
      vertex -9.20055 -10.2182 23
      vertex -13.4495 2.85879 23
      vertex -11.124 -8.08205 23
    endloop
  endfacet
  facet normal 0 0 1
    outer loop
      vertex -11.4932 -2.44296 23
      vertex -13.4495 2.85879 23
      vertex -9.20055 -10.2182 23
    endloop
  endfacet
  facet normal 0 0 1
    outer loop
      vertex 1.22821 11.6856 23
      vertex 3.63095 11.1749 23
      vertex 4.24898 13.077 23
    endloop
  endfacet
  facet normal 0 0 1
    outer loop
      vertex -3.63095 11.1749 23
      vertex -1.22821 11.6856 23
      vertex 1.43727 13.6747 23
    endloop
  endfacet
  facet normal 0 0 1
    outer loop
      vertex -6.875 11.9078 23
      vertex -13.4495 2.85879 23
      vertex -4.24898 13.077 23
    endloop
  endfacet
  facet normal 0 0 1
    outer loop
      vertex -9.20055 10.2182 23
      vertex -13.4495 2.85879 23
      vertex -6.875 11.9078 23
    endloop
  endfacet
  facet normal 0 0 1
    outer loop
      vertex -11.124 8.08205 23
      vertex -13.4495 2.85879 23
      vertex -9.20055 10.2182 23
    endloop
  endfacet
  facet normal 0 0 1
    outer loop
      vertex -12.5612 5.59263 23
      vertex -13.4495 2.85879 23
      vertex -11.124 8.08205 23
    endloop
  endfacet
  facet normal 0 0 1
    outer loop
      vertex -10.7342 -4.77916 23
      vertex -11.4932 -2.44296 23
      vertex -9.20055 -10.2182 23
    endloop
  endfacet
  facet normal 0 0 1
    outer loop
      vertex 5.875 -10.1758 23
      vertex 3.63095 -11.1749 23
      vertex 6.875 -11.9078 23
    endloop
  endfacet
  facet normal 0 0 1
    outer loop
      vertex 9.50595 -6.90648 23
      vertex 7.86228 -8.73195 23
      vertex 11.124 -8.08205 23
    endloop
  endfacet
  facet normal 0 0 1
    outer loop
      vertex 3.63095 11.1749 23
      vertex 5.875 10.1758 23
      vertex 6.875 11.9078 23
    endloop
  endfacet
  facet normal 0 0 1
    outer loop
      vertex -4.24898 13.077 23
      vertex -13.4495 2.85879 23
      vertex -9.50595 6.90648 23
    endloop
  endfacet
  facet normal 0 0 1
    outer loop
      vertex -4.24898 13.077 23
      vertex -7.86228 8.73195 23
      vertex -1.43727 13.6747 23
    endloop
  endfacet
  facet normal 0 0 1
    outer loop
      vertex -4.24898 13.077 23
      vertex -9.50595 6.90648 23
      vertex -7.86228 8.73195 23
    endloop
  endfacet
  facet normal 0 0 1
    outer loop
      vertex -7.86228 8.73195 23
      vertex -5.875 10.1758 23
      vertex -1.43727 13.6747 23
    endloop
  endfacet
  facet normal 0 0 1
    outer loop
      vertex -1.43727 13.6747 23
      vertex -3.63095 11.1749 23
      vertex 1.43727 13.6747 23
    endloop
  endfacet
  facet normal 0 0 1
    outer loop
      vertex -5.875 10.1758 23
      vertex -3.63095 11.1749 23
      vertex -1.43727 13.6747 23
    endloop
  endfacet
  facet normal 0 0 1
    outer loop
      vertex 1.43727 13.6747 23
      vertex -1.22821 11.6856 23
      vertex 4.24898 13.077 23
    endloop
  endfacet
  facet normal 0 0 1
    outer loop
      vertex -1.22821 11.6856 23
      vertex 1.22821 11.6856 23
      vertex 4.24898 13.077 23
    endloop
  endfacet
  facet normal 0 0 1
    outer loop
      vertex 4.24898 13.077 23
      vertex 3.63095 11.1749 23
      vertex 6.875 11.9078 23
    endloop
  endfacet
  facet normal 0 0 1
    outer loop
      vertex -1.22821 -11.6856 23
      vertex -3.63095 -11.1749 23
      vertex -1.43727 -13.6747 23
    endloop
  endfacet
  facet normal 0 0 1
    outer loop
      vertex 6.875 11.9078 23
      vertex 5.875 10.1758 23
      vertex 9.20055 10.2182 23
    endloop
  endfacet
  facet normal 0 0 1
    outer loop
      vertex -10.7342 4.77916 23
      vertex -9.50595 6.90648 23
      vertex -13.4495 2.85879 23
    endloop
  endfacet
  facet normal 0 0 1
    outer loop
      vertex 9.20055 10.2182 23
      vertex 7.86228 8.73195 23
      vertex 11.124 8.08205 23
    endloop
  endfacet
  facet normal 0 0 1
    outer loop
      vertex 11.124 8.08205 23
      vertex 9.50595 6.90648 23
      vertex 12.5612 5.59263 23
    endloop
  endfacet
  facet normal 0 0 1
    outer loop
      vertex 12.5612 5.59263 23
      vertex 10.7342 4.77916 23
      vertex 13.4495 2.85879 23
    endloop
  endfacet
  facet normal 0 0 1
    outer loop
      vertex 13.4495 2.85879 23
      vertex 11.4932 2.44296 23
      vertex 13.75 0 23
    endloop
  endfacet
  facet normal 0 0 1
    outer loop
      vertex 13.75 0 23
      vertex 11.75 0 23
      vertex 13.4495 -2.85879 23
    endloop
  endfacet
  facet normal 0 0 1
    outer loop
      vertex 11.75 0 23
      vertex 11.4932 -2.44296 23
      vertex 13.4495 -2.85879 23
    endloop
  endfacet
  facet normal 0 0 1
    outer loop
      vertex 13.4495 -2.85879 23
      vertex 10.7342 -4.77916 23
      vertex 12.5612 -5.59263 23
    endloop
  endfacet
  facet normal 0 0 1
    outer loop
      vertex 12.5612 -5.59263 23
      vertex 9.50595 -6.90648 23
      vertex 11.124 -8.08205 23
    endloop
  endfacet
  facet normal 0 0 1
    outer loop
      vertex 5.875 10.1758 23
      vertex 7.86228 8.73195 23
      vertex 9.20055 10.2182 23
    endloop
  endfacet
  facet normal 0 0 1
    outer loop
      vertex 11.124 -8.08205 23
      vertex 7.86228 -8.73195 23
      vertex 9.20055 -10.2182 23
    endloop
  endfacet
  facet normal 0 0 1
    outer loop
      vertex 7.86228 8.73195 23
      vertex 9.50595 6.90648 23
      vertex 11.124 8.08205 23
    endloop
  endfacet
  facet normal 0 0 1
    outer loop
      vertex 9.20055 -10.2182 23
      vertex 5.875 -10.1758 23
      vertex 6.875 -11.9078 23
    endloop
  endfacet
  facet normal 0 0 1
    outer loop
      vertex 9.50595 6.90648 23
      vertex 10.7342 4.77916 23
      vertex 12.5612 5.59263 23
    endloop
  endfacet
  facet normal 0 0 1
    outer loop
      vertex 6.875 -11.9078 23
      vertex 3.63095 -11.1749 23
      vertex 4.24898 -13.077 23
    endloop
  endfacet
  facet normal 0 0 1
    outer loop
      vertex 10.7342 4.77916 23
      vertex 11.4932 2.44296 23
      vertex 13.4495 2.85879 23
    endloop
  endfacet
  facet normal 0 0 1
    outer loop
      vertex 4.24898 -13.077 23
      vertex 1.22821 -11.6856 23
      vertex 1.43727 -13.6747 23
    endloop
  endfacet
  facet normal 0 0 1
    outer loop
      vertex 11.4932 2.44296 23
      vertex 11.75 0 23
      vertex 13.75 0 23
    endloop
  endfacet
  facet normal 0 0 1
    outer loop
      vertex 1.43727 -13.6747 23
      vertex -1.22821 -11.6856 23
      vertex -1.43727 -13.6747 23
    endloop
  endfacet
  facet normal 0 0 1
    outer loop
      vertex 11.4932 -2.44296 23
      vertex 10.7342 -4.77916 23
      vertex 13.4495 -2.85879 23
    endloop
  endfacet
  facet normal 0 0 1
    outer loop
      vertex -1.43727 -13.6747 23
      vertex -3.63095 -11.1749 23
      vertex -4.24898 -13.077 23
    endloop
  endfacet
  facet normal 0 0 1
    outer loop
      vertex -3.63095 -11.1749 23
      vertex -5.875 -10.1758 23
      vertex -4.24898 -13.077 23
    endloop
  endfacet
  facet normal 0 0 1
    outer loop
      vertex -4.24898 -13.077 23
      vertex -7.86228 -8.73195 23
      vertex -6.875 -11.9078 23
    endloop
  endfacet
  facet normal 0 0 1
    outer loop
      vertex 7.86228 -8.73195 23
      vertex 5.875 -10.1758 23
      vertex 9.20055 -10.2182 23
    endloop
  endfacet
  facet normal 0 0 1
    outer loop
      vertex -6.875 -11.9078 23
      vertex -9.50595 -6.90648 23
      vertex -9.20055 -10.2182 23
    endloop
  endfacet
  facet normal 0 0 1
    outer loop
      vertex -9.50595 -6.90648 23
      vertex -10.7342 -4.77916 23
      vertex -9.20055 -10.2182 23
    endloop
  endfacet
  facet normal 0 0 1
    outer loop
      vertex -11.4932 -2.44296 23
      vertex -11.75 0 23
      vertex -13.4495 2.85879 23
    endloop
  endfacet
  facet normal 0 0 1
    outer loop
      vertex 3.63095 -11.1749 23
      vertex 1.22821 -11.6856 23
      vertex 4.24898 -13.077 23
    endloop
  endfacet
  facet normal 0 0 1
    outer loop
      vertex 1.22821 -11.6856 23
      vertex -1.22821 -11.6856 23
      vertex 1.43727 -13.6747 23
    endloop
  endfacet
  facet normal 0 0 1
    outer loop
      vertex -7.86228 -8.73195 23
      vertex -9.50595 -6.90648 23
      vertex -6.875 -11.9078 23
    endloop
  endfacet
  facet normal 0 0 1
    outer loop
      vertex -5.875 -10.1758 23
      vertex -7.86228 -8.73195 23
      vertex -4.24898 -13.077 23
    endloop
  endfacet
  facet normal 0 0 1
    outer loop
      vertex -11.75 0 23
      vertex -11.4932 2.44296 23
      vertex -13.4495 2.85879 23
    endloop
  endfacet
  facet normal 0 0 1
    outer loop
      vertex 10.7342 -4.77916 23
      vertex 9.50595 -6.90648 23
      vertex 12.5612 -5.59263 23
    endloop
  endfacet
  facet normal 0 0 1
    outer loop
      vertex -11.4932 2.44296 23
      vertex -10.7342 4.77916 23
      vertex -13.4495 2.85879 23
    endloop
  endfacet
  facet normal -0.994522 -0.104528 0
    outer loop
      vertex -13.75 0 3
      vertex -13.4495 -2.85879 3
      vertex -13.75 0 23
    endloop
  endfacet
  facet normal -0.994522 -0.104528 0
    outer loop
      vertex -13.75 0 23
      vertex -13.4495 -2.85879 3
      vertex -13.4495 -2.85879 23
    endloop
  endfacet
  facet normal -0.951056 -0.309017 0
    outer loop
      vertex -13.4495 -2.85879 3
      vertex -12.5612 -5.59263 3
      vertex -13.4495 -2.85879 23
    endloop
  endfacet
  facet normal -0.951056 -0.309017 0
    outer loop
      vertex -13.4495 -2.85879 23
      vertex -12.5612 -5.59263 3
      vertex -12.5612 -5.59263 23
    endloop
  endfacet
  facet normal -0.866025 -0.5 0
    outer loop
      vertex -12.5612 -5.59263 3
      vertex -11.124 -8.08205 3
      vertex -12.5612 -5.59263 23
    endloop
  endfacet
  facet normal -0.866025 -0.5 0
    outer loop
      vertex -12.5612 -5.59263 23
      vertex -11.124 -8.08205 3
      vertex -11.124 -8.08205 23
    endloop
  endfacet
  facet normal -0.743145 -0.669131 0
    outer loop
      vertex -11.124 -8.08205 3
      vertex -9.20055 -10.2182 3
      vertex -11.124 -8.08205 23
    endloop
  endfacet
  facet normal -0.743145 -0.669131 0
    outer loop
      vertex -11.124 -8.08205 23
      vertex -9.20055 -10.2182 3
      vertex -9.20055 -10.2182 23
    endloop
  endfacet
  facet normal -0.587785 -0.809017 0
    outer loop
      vertex -9.20055 -10.2182 23
      vertex -9.20055 -10.2182 3
      vertex -6.875 -11.9078 3
    endloop
  endfacet
  facet normal -0.587785 -0.809017 0
    outer loop
      vertex -6.875 -11.9078 23
      vertex -9.20055 -10.2182 23
      vertex -6.875 -11.9078 3
    endloop
  endfacet
  facet normal -0.406737 -0.913545 0
    outer loop
      vertex -6.875 -11.9078 23
      vertex -6.875 -11.9078 3
      vertex -4.24898 -13.077 3
    endloop
  endfacet
  facet normal -0.406737 -0.913545 0
    outer loop
      vertex -4.24898 -13.077 23
      vertex -6.875 -11.9078 23
      vertex -4.24898 -13.077 3
    endloop
  endfacet
  facet normal -0.207912 -0.978148 0
    outer loop
      vertex -4.24898 -13.077 23
      vertex -4.24898 -13.077 3
      vertex -1.43727 -13.6747 3
    endloop
  endfacet
  facet normal -0.207912 -0.978148 0
    outer loop
      vertex -1.43727 -13.6747 23
      vertex -4.24898 -13.077 23
      vertex -1.43727 -13.6747 3
    endloop
  endfacet
  facet normal 0 -1 0
    outer loop
      vertex -1.43727 -13.6747 23
      vertex -1.43727 -13.6747 3
      vertex 1.43727 -13.6747 3
    endloop
  endfacet
  facet normal 0 -1 0
    outer loop
      vertex 1.43727 -13.6747 23
      vertex -1.43727 -13.6747 23
      vertex 1.43727 -13.6747 3
    endloop
  endfacet
  facet normal 0.207912 -0.978148 0
    outer loop
      vertex 1.43727 -13.6747 23
      vertex 1.43727 -13.6747 3
      vertex 4.24898 -13.077 3
    endloop
  endfacet
  facet normal 0.207912 -0.978148 0
    outer loop
      vertex 4.24898 -13.077 23
      vertex 1.43727 -13.6747 23
      vertex 4.24898 -13.077 3
    endloop
  endfacet
  facet normal 0.406737 -0.913545 0
    outer loop
      vertex 4.24898 -13.077 23
      vertex 4.24898 -13.077 3
      vertex 6.875 -11.9078 3
    endloop
  endfacet
  facet normal 0.406737 -0.913545 0
    outer loop
      vertex 6.875 -11.9078 23
      vertex 4.24898 -13.077 23
      vertex 6.875 -11.9078 3
    endloop
  endfacet
  facet normal 0.587785 -0.809017 0
    outer loop
      vertex 6.875 -11.9078 23
      vertex 6.875 -11.9078 3
      vertex 9.20055 -10.2182 3
    endloop
  endfacet
  facet normal 0.587785 -0.809017 0
    outer loop
      vertex 9.20055 -10.2182 23
      vertex 6.875 -11.9078 23
      vertex 9.20055 -10.2182 3
    endloop
  endfacet
  facet normal 0.743145 -0.669131 0
    outer loop
      vertex 9.20055 -10.2182 23
      vertex 9.20055 -10.2182 3
      vertex 11.124 -8.08205 3
    endloop
  endfacet
  facet normal 0.743145 -0.669131 0
    outer loop
      vertex 11.124 -8.08205 23
      vertex 9.20055 -10.2182 23
      vertex 11.124 -8.08205 3
    endloop
  endfacet
  facet normal 0.866025 -0.5 0
    outer loop
      vertex 11.124 -8.08205 23
      vertex 11.124 -8.08205 3
      vertex 12.5612 -5.59263 3
    endloop
  endfacet
  facet normal 0.866025 -0.5 0
    outer loop
      vertex 12.5612 -5.59263 23
      vertex 11.124 -8.08205 23
      vertex 12.5612 -5.59263 3
    endloop
  endfacet
  facet normal 0.951056 -0.309017 0
    outer loop
      vertex 12.5612 -5.59263 23
      vertex 12.5612 -5.59263 3
      vertex 13.4495 -2.85879 3
    endloop
  endfacet
  facet normal 0.951056 -0.309017 0
    outer loop
      vertex 13.4495 -2.85879 23
      vertex 12.5612 -5.59263 23
      vertex 13.4495 -2.85879 3
    endloop
  endfacet
  facet normal 0.994522 -0.104528 0
    outer loop
      vertex 13.4495 -2.85879 23
      vertex 13.4495 -2.85879 3
      vertex 13.75 0 3
    endloop
  endfacet
  facet normal 0.994522 -0.104528 0
    outer loop
      vertex 13.75 0 23
      vertex 13.4495 -2.85879 23
      vertex 13.75 0 3
    endloop
  endfacet
  facet normal 0.994522 0.104528 0
    outer loop
      vertex 13.75 0 3
      vertex 13.4495 2.85879 3
      vertex 13.4495 2.85879 23
    endloop
  endfacet
  facet normal 0.994522 0.104528 0
    outer loop
      vertex 13.75 0 23
      vertex 13.75 0 3
      vertex 13.4495 2.85879 23
    endloop
  endfacet
  facet normal 0.951056 0.309017 0
    outer loop
      vertex 13.4495 2.85879 3
      vertex 12.5612 5.59263 3
      vertex 12.5612 5.59263 23
    endloop
  endfacet
  facet normal 0.951056 0.309017 0
    outer loop
      vertex 13.4495 2.85879 23
      vertex 13.4495 2.85879 3
      vertex 12.5612 5.59263 23
    endloop
  endfacet
  facet normal 0.866025 0.5 0
    outer loop
      vertex 12.5612 5.59263 3
      vertex 11.124 8.08205 3
      vertex 11.124 8.08205 23
    endloop
  endfacet
  facet normal 0.866025 0.5 0
    outer loop
      vertex 12.5612 5.59263 23
      vertex 12.5612 5.59263 3
      vertex 11.124 8.08205 23
    endloop
  endfacet
  facet normal 0.743145 0.669131 0
    outer loop
      vertex 11.124 8.08205 3
      vertex 9.20055 10.2182 3
      vertex 9.20055 10.2182 23
    endloop
  endfacet
  facet normal 0.743145 0.669131 0
    outer loop
      vertex 11.124 8.08205 23
      vertex 11.124 8.08205 3
      vertex 9.20055 10.2182 23
    endloop
  endfacet
  facet normal 0.587785 0.809017 0
    outer loop
      vertex 6.875 11.9078 3
      vertex 6.875 11.9078 23
      vertex 9.20055 10.2182 3
    endloop
  endfacet
  facet normal 0.587785 0.809017 0
    outer loop
      vertex 9.20055 10.2182 3
      vertex 6.875 11.9078 23
      vertex 9.20055 10.2182 23
    endloop
  endfacet
  facet normal 0.406737 0.913545 0
    outer loop
      vertex 4.24898 13.077 3
      vertex 4.24898 13.077 23
      vertex 6.875 11.9078 3
    endloop
  endfacet
  facet normal 0.406737 0.913545 0
    outer loop
      vertex 6.875 11.9078 3
      vertex 4.24898 13.077 23
      vertex 6.875 11.9078 23
    endloop
  endfacet
  facet normal 0.207912 0.978148 0
    outer loop
      vertex 1.43727 13.6747 3
      vertex 1.43727 13.6747 23
      vertex 4.24898 13.077 3
    endloop
  endfacet
  facet normal 0.207912 0.978148 0
    outer loop
      vertex 4.24898 13.077 3
      vertex 1.43727 13.6747 23
      vertex 4.24898 13.077 23
    endloop
  endfacet
  facet normal 0 1 0
    outer loop
      vertex -1.43727 13.6747 3
      vertex -1.43727 13.6747 23
      vertex 1.43727 13.6747 3
    endloop
  endfacet
  facet normal 0 1 0
    outer loop
      vertex 1.43727 13.6747 3
      vertex -1.43727 13.6747 23
      vertex 1.43727 13.6747 23
    endloop
  endfacet
  facet normal -0.207912 0.978148 0
    outer loop
      vertex -4.24898 13.077 3
      vertex -4.24898 13.077 23
      vertex -1.43727 13.6747 3
    endloop
  endfacet
  facet normal -0.207912 0.978148 0
    outer loop
      vertex -1.43727 13.6747 3
      vertex -4.24898 13.077 23
      vertex -1.43727 13.6747 23
    endloop
  endfacet
  facet normal -0.406737 0.913545 0
    outer loop
      vertex -6.875 11.9078 3
      vertex -6.875 11.9078 23
      vertex -4.24898 13.077 3
    endloop
  endfacet
  facet normal -0.406737 0.913545 0
    outer loop
      vertex -4.24898 13.077 3
      vertex -6.875 11.9078 23
      vertex -4.24898 13.077 23
    endloop
  endfacet
  facet normal -0.587785 0.809017 0
    outer loop
      vertex -9.20055 10.2182 3
      vertex -9.20055 10.2182 23
      vertex -6.875 11.9078 3
    endloop
  endfacet
  facet normal -0.587785 0.809017 0
    outer loop
      vertex -6.875 11.9078 3
      vertex -9.20055 10.2182 23
      vertex -6.875 11.9078 23
    endloop
  endfacet
  facet normal -0.743145 0.669131 0
    outer loop
      vertex -11.124 8.08205 3
      vertex -11.124 8.08205 23
      vertex -9.20055 10.2182 3
    endloop
  endfacet
  facet normal -0.743145 0.669131 0
    outer loop
      vertex -9.20055 10.2182 3
      vertex -11.124 8.08205 23
      vertex -9.20055 10.2182 23
    endloop
  endfacet
  facet normal -0.866025 0.5 0
    outer loop
      vertex -12.5612 5.59263 3
      vertex -12.5612 5.59263 23
      vertex -11.124 8.08205 3
    endloop
  endfacet
  facet normal -0.866025 0.5 0
    outer loop
      vertex -11.124 8.08205 3
      vertex -12.5612 5.59263 23
      vertex -11.124 8.08205 23
    endloop
  endfacet
  facet normal -0.951056 0.309017 0
    outer loop
      vertex -13.4495 2.85879 3
      vertex -13.4495 2.85879 23
      vertex -12.5612 5.59263 3
    endloop
  endfacet
  facet normal -0.951056 0.309017 0
    outer loop
      vertex -12.5612 5.59263 3
      vertex -13.4495 2.85879 23
      vertex -12.5612 5.59263 23
    endloop
  endfacet
  facet normal -0.994522 0.104528 0
    outer loop
      vertex -13.75 0 3
      vertex -13.75 0 23
      vertex -13.4495 2.85879 3
    endloop
  endfacet
  facet normal -0.994522 0.104528 0
    outer loop
      vertex -13.4495 2.85879 3
      vertex -13.75 0 23
      vertex -13.4495 2.85879 23
    endloop
  endfacet
endsolid OpenSCAD_Model
