solid OpenSCAD_Model
  facet normal 0 0 -1
    outer loop
      vertex -1.80194 -0.867767 0
      vertex -1.80194 0.867767 0
      vertex -0.445042 -1.94986 0
    endloop
  endfacet
  facet normal 0 0 -1
    outer loop
      vertex -0.445042 -1.94986 0
      vertex -1.80194 0.867767 0
      vertex -0.445042 1.94986 0
    endloop
  endfacet
  facet normal 0 0 -1
    outer loop
      vertex -0.445042 -1.94986 0
      vertex -0.445042 1.94986 0
      vertex 1.24698 1.56366 0
    endloop
  endfacet
  facet normal 0 0 -1
    outer loop
      vertex -0.445042 -1.94986 0
      vertex 1.24698 1.56366 0
      vertex 2 0 0
    endloop
  endfacet
  facet normal 0 0 -1
    outer loop
      vertex -0.445042 -1.94986 0
      vertex 2 0 0
      vertex 1.24698 -1.56366 0
    endloop
  endfacet
  facet normal -1 0 0
    outer loop
      vertex -1.80194 -0.867767 0
      vertex -1.80194 -0.867767 19
      vertex -1.80194 0.867767 0
    endloop
  endfacet
  facet normal -1 0 0
    outer loop
      vertex -1.80194 0.867767 0
      vertex -1.80194 -0.867767 19
      vertex -1.80194 0.867767 19
    endloop
  endfacet
  facet normal -0.62349 -0.781831 0
    outer loop
      vertex -1.80194 -0.867767 19
      vertex -1.80194 -0.867767 0
      vertex -0.445042 -1.94986 0
    endloop
  endfacet
  facet normal -0.62349 -0.781831 0
    outer loop
      vertex -0.445042 -1.94986 19
      vertex -1.80194 -0.867767 19
      vertex -0.445042 -1.94986 0
    endloop
  endfacet
  facet normal 0.222521 -0.974928 0
    outer loop
      vertex -0.445042 -1.94986 19
      vertex -0.445042 -1.94986 0
      vertex 1.24698 -1.56366 0
    endloop
  endfacet
  facet normal 0.222521 -0.974928 0
    outer loop
      vertex 1.24698 -1.56366 19
      vertex -0.445042 -1.94986 19
      vertex 1.24698 -1.56366 0
    endloop
  endfacet
  facet normal 0.900969 -0.433884 0
    outer loop
      vertex 1.24698 -1.56366 19
      vertex 1.24698 -1.56366 0
      vertex 2 0 0
    endloop
  endfacet
  facet normal 0.900969 -0.433884 0
    outer loop
      vertex 2 0 19
      vertex 1.24698 -1.56366 19
      vertex 2 0 0
    endloop
  endfacet
  facet normal 0.900969 0.433884 0
    outer loop
      vertex 2 0 0
      vertex 1.24698 1.56366 0
      vertex 1.24698 1.56366 19
    endloop
  endfacet
  facet normal 0.900969 0.433884 0
    outer loop
      vertex 2 0 19
      vertex 2 0 0
      vertex 1.24698 1.56366 19
    endloop
  endfacet
  facet normal 0.222521 0.974928 0
    outer loop
      vertex -0.445042 1.94986 0
      vertex -0.445042 1.94986 19
      vertex 1.24698 1.56366 0
    endloop
  endfacet
  facet normal 0.222521 0.974928 0
    outer loop
      vertex 1.24698 1.56366 0
      vertex -0.445042 1.94986 19
      vertex 1.24698 1.56366 19
    endloop
  endfacet
  facet normal -0.62349 0.781831 0
    outer loop
      vertex -1.80194 0.867767 0
      vertex -1.80194 0.867767 19
      vertex -0.445042 1.94986 0
    endloop
  endfacet
  facet normal -0.62349 0.781831 0
    outer loop
      vertex -0.445042 1.94986 0
      vertex -1.80194 0.867767 19
      vertex -0.445042 1.94986 19
    endloop
  endfacet
  facet normal 0 0 1
    outer loop
      vertex -1.80194 0.867767 19
      vertex -1.80194 -0.867767 19
      vertex -0.445042 -1.94986 19
    endloop
  endfacet
  facet normal 0 0 1
    outer loop
      vertex 2 0 19
      vertex -1.80194 0.867767 19
      vertex 1.24698 -1.56366 19
    endloop
  endfacet
  facet normal 0 0 1
    outer loop
      vertex 1.24698 -1.56366 19
      vertex -1.80194 0.867767 19
      vertex -0.445042 -1.94986 19
    endloop
  endfacet
  facet normal 0 0 1
    outer loop
      vertex 1.24698 1.56366 19
      vertex -1.80194 0.867767 19
      vertex 2 0 19
    endloop
  endfacet
  facet normal 0 0 1
    outer loop
      vertex -0.445042 1.94986 19
      vertex -1.80194 0.867767 19
      vertex 1.24698 1.56366 19
    endloop
  endfacet
  facet normal 0 0 -1
    outer loop
      vertex 65 0 0
      vertex 65.3806 1.91342 0
      vertex 65.3806 -1.91342 0
    endloop
  endfacet
  facet normal 0 0 -1
    outer loop
      vertex 65.3806 -1.91342 0
      vertex 65.3806 1.91342 0
      vertex 66.4645 3.53553 0
    endloop
  endfacet
  facet normal 0 0 -1
    outer loop
      vertex 65.3806 -1.91342 0
      vertex 66.4645 3.53553 0
      vertex 68.0866 4.6194 0
    endloop
  endfacet
  facet normal 0 0 -1
    outer loop
      vertex 65.3806 -1.91342 0
      vertex 68.0866 4.6194 0
      vertex 70 5 0
    endloop
  endfacet
  facet normal 0 0 -1
    outer loop
      vertex 65.3806 -1.91342 0
      vertex 70 5 0
      vertex 71.9134 4.6194 0
    endloop
  endfacet
  facet normal 0 0 -1
    outer loop
      vertex 65.3806 -1.91342 0
      vertex 71.9134 4.6194 0
      vertex 73.5355 3.53553 0
    endloop
  endfacet
  facet normal 0 0 -1
    outer loop
      vertex 65.3806 -1.91342 0
      vertex 73.5355 3.53553 0
      vertex 74.6194 1.91342 0
    endloop
  endfacet
  facet normal 0 0 -1
    outer loop
      vertex 65.3806 -1.91342 0
      vertex 74.6194 1.91342 0
      vertex 75 0 0
    endloop
  endfacet
  facet normal 0 0 -1
    outer loop
      vertex 65.3806 -1.91342 0
      vertex 75 0 0
      vertex 74.6194 -1.91342 0
    endloop
  endfacet
  facet normal 0 0 -1
    outer loop
      vertex 65.3806 -1.91342 0
      vertex 74.6194 -1.91342 0
      vertex 73.5355 -3.53553 0
    endloop
  endfacet
  facet normal 0 0 -1
    outer loop
      vertex 65.3806 -1.91342 0
      vertex 73.5355 -3.53553 0
      vertex 71.9134 -4.6194 0
    endloop
  endfacet
  facet normal 0 0 -1
    outer loop
      vertex 65.3806 -1.91342 0
      vertex 71.9134 -4.6194 0
      vertex 70 -5 0
    endloop
  endfacet
  facet normal 0 0 -1
    outer loop
      vertex 65.3806 -1.91342 0
      vertex 70 -5 0
      vertex 68.0866 -4.6194 0
    endloop
  endfacet
  facet normal 0 0 -1
    outer loop
      vertex 65.3806 -1.91342 0
      vertex 68.0866 -4.6194 0
      vertex 66.4645 -3.53553 0
    endloop
  endfacet
  facet normal -0.980785 0.19509 0
    outer loop
      vertex 65 0 0
      vertex 65 0 90
      vertex 65.3806 1.91342 0
    endloop
  endfacet
  facet normal -0.980785 0.19509 0
    outer loop
      vertex 65.3806 1.91342 0
      vertex 65 0 90
      vertex 65.3806 1.91342 90
    endloop
  endfacet
  facet normal -0.980785 -0.19509 0
    outer loop
      vertex 65 0 0
      vertex 65.3806 -1.91342 0
      vertex 65 0 90
    endloop
  endfacet
  facet normal -0.980785 -0.19509 0
    outer loop
      vertex 65 0 90
      vertex 65.3806 -1.91342 0
      vertex 65.3806 -1.91342 90
    endloop
  endfacet
  facet normal -0.83147 -0.55557 0
    outer loop
      vertex 65.3806 -1.91342 0
      vertex 66.4645 -3.53553 0
      vertex 65.3806 -1.91342 90
    endloop
  endfacet
  facet normal -0.83147 -0.55557 0
    outer loop
      vertex 65.3806 -1.91342 90
      vertex 66.4645 -3.53553 0
      vertex 66.4645 -3.53553 90
    endloop
  endfacet
  facet normal -0.55557 -0.83147 0
    outer loop
      vertex 66.4645 -3.53553 90
      vertex 66.4645 -3.53553 0
      vertex 68.0866 -4.6194 0
    endloop
  endfacet
  facet normal -0.55557 -0.83147 0
    outer loop
      vertex 68.0866 -4.6194 90
      vertex 66.4645 -3.53553 90
      vertex 68.0866 -4.6194 0
    endloop
  endfacet
  facet normal -0.19509 -0.980785 0
    outer loop
      vertex 68.0866 -4.6194 90
      vertex 68.0866 -4.6194 0
      vertex 70 -5 0
    endloop
  endfacet
  facet normal -0.19509 -0.980785 0
    outer loop
      vertex 70 -5 90
      vertex 68.0866 -4.6194 90
      vertex 70 -5 0
    endloop
  endfacet
  facet normal 0.19509 -0.980785 0
    outer loop
      vertex 70 -5 90
      vertex 70 -5 0
      vertex 71.9134 -4.6194 0
    endloop
  endfacet
  facet normal 0.19509 -0.980785 0
    outer loop
      vertex 71.9134 -4.6194 90
      vertex 70 -5 90
      vertex 71.9134 -4.6194 0
    endloop
  endfacet
  facet normal 0.55557 -0.83147 0
    outer loop
      vertex 71.9134 -4.6194 90
      vertex 71.9134 -4.6194 0
      vertex 73.5355 -3.53553 0
    endloop
  endfacet
  facet normal 0.55557 -0.83147 0
    outer loop
      vertex 73.5355 -3.53553 90
      vertex 71.9134 -4.6194 90
      vertex 73.5355 -3.53553 0
    endloop
  endfacet
  facet normal 0.83147 -0.55557 0
    outer loop
      vertex 73.5355 -3.53553 90
      vertex 73.5355 -3.53553 0
      vertex 74.6194 -1.91342 0
    endloop
  endfacet
  facet normal 0.83147 -0.55557 0
    outer loop
      vertex 74.6194 -1.91342 90
      vertex 73.5355 -3.53553 90
      vertex 74.6194 -1.91342 0
    endloop
  endfacet
  facet normal 0.980785 -0.19509 0
    outer loop
      vertex 74.6194 -1.91342 90
      vertex 74.6194 -1.91342 0
      vertex 75 0 0
    endloop
  endfacet
  facet normal 0.980785 -0.19509 0
    outer loop
      vertex 75 0 90
      vertex 74.6194 -1.91342 90
      vertex 75 0 0
    endloop
  endfacet
  facet normal 0.980785 0.19509 0
    outer loop
      vertex 75 0 0
      vertex 74.6194 1.91342 0
      vertex 74.6194 1.91342 90
    endloop
  endfacet
  facet normal 0.980785 0.19509 0
    outer loop
      vertex 75 0 90
      vertex 75 0 0
      vertex 74.6194 1.91342 90
    endloop
  endfacet
  facet normal 0.83147 0.55557 0
    outer loop
      vertex 74.6194 1.91342 0
      vertex 73.5355 3.53553 0
      vertex 73.5355 3.53553 90
    endloop
  endfacet
  facet normal 0.83147 0.55557 0
    outer loop
      vertex 74.6194 1.91342 90
      vertex 74.6194 1.91342 0
      vertex 73.5355 3.53553 90
    endloop
  endfacet
  facet normal 0.55557 0.83147 0
    outer loop
      vertex 71.9134 4.6194 0
      vertex 71.9134 4.6194 90
      vertex 73.5355 3.53553 0
    endloop
  endfacet
  facet normal 0.55557 0.83147 0
    outer loop
      vertex 73.5355 3.53553 0
      vertex 71.9134 4.6194 90
      vertex 73.5355 3.53553 90
    endloop
  endfacet
  facet normal 0.19509 0.980785 0
    outer loop
      vertex 70 5 0
      vertex 70 5 90
      vertex 71.9134 4.6194 0
    endloop
  endfacet
  facet normal 0.19509 0.980785 0
    outer loop
      vertex 71.9134 4.6194 0
      vertex 70 5 90
      vertex 71.9134 4.6194 90
    endloop
  endfacet
  facet normal -0.19509 0.980785 0
    outer loop
      vertex 68.0866 4.6194 0
      vertex 68.0866 4.6194 90
      vertex 70 5 0
    endloop
  endfacet
  facet normal -0.19509 0.980785 0
    outer loop
      vertex 70 5 0
      vertex 68.0866 4.6194 90
      vertex 70 5 90
    endloop
  endfacet
  facet normal -0.55557 0.83147 0
    outer loop
      vertex 66.4645 3.53553 0
      vertex 66.4645 3.53553 90
      vertex 68.0866 4.6194 0
    endloop
  endfacet
  facet normal -0.55557 0.83147 0
    outer loop
      vertex 68.0866 4.6194 0
      vertex 66.4645 3.53553 90
      vertex 68.0866 4.6194 90
    endloop
  endfacet
  facet normal -0.83147 0.55557 0
    outer loop
      vertex 65.3806 1.91342 0
      vertex 65.3806 1.91342 90
      vertex 66.4645 3.53553 0
    endloop
  endfacet
  facet normal -0.83147 0.55557 0
    outer loop
      vertex 66.4645 3.53553 0
      vertex 65.3806 1.91342 90
      vertex 66.4645 3.53553 90
    endloop
  endfacet
  facet normal 0 0 1
    outer loop
      vertex 65.3806 1.91342 90
      vertex 65 0 90
      vertex 65.3806 -1.91342 90
    endloop
  endfacet
  facet normal 0 0 1
    outer loop
      vertex 68.0866 -4.6194 90
      vertex 65.3806 1.91342 90
      vertex 66.4645 -3.53553 90
    endloop
  endfacet
  facet normal 0 0 1
    outer loop
      vertex 66.4645 -3.53553 90
      vertex 65.3806 1.91342 90
      vertex 65.3806 -1.91342 90
    endloop
  endfacet
  facet normal 0 0 1
    outer loop
      vertex 70 -5 90
      vertex 65.3806 1.91342 90
      vertex 68.0866 -4.6194 90
    endloop
  endfacet
  facet normal 0 0 1
    outer loop
      vertex 71.9134 -4.6194 90
      vertex 65.3806 1.91342 90
      vertex 70 -5 90
    endloop
  endfacet
  facet normal 0 0 1
    outer loop
      vertex 73.5355 -3.53553 90
      vertex 65.3806 1.91342 90
      vertex 71.9134 -4.6194 90
    endloop
  endfacet
  facet normal 0 0 1
    outer loop
      vertex 74.6194 -1.91342 90
      vertex 65.3806 1.91342 90
      vertex 73.5355 -3.53553 90
    endloop
  endfacet
  facet normal 0 0 1
    outer loop
      vertex 75 0 90
      vertex 65.3806 1.91342 90
      vertex 74.6194 -1.91342 90
    endloop
  endfacet
  facet normal 0 0 1
    outer loop
      vertex 74.6194 1.91342 90
      vertex 65.3806 1.91342 90
      vertex 75 0 90
    endloop
  endfacet
  facet normal 0 0 1
    outer loop
      vertex 73.5355 3.53553 90
      vertex 65.3806 1.91342 90
      vertex 74.6194 1.91342 90
    endloop
  endfacet
  facet normal 0 0 1
    outer loop
      vertex 71.9134 4.6194 90
      vertex 65.3806 1.91342 90
      vertex 73.5355 3.53553 90
    endloop
  endfacet
  facet normal 0 0 1
    outer loop
      vertex 70 5 90
      vertex 65.3806 1.91342 90
      vertex 71.9134 4.6194 90
    endloop
  endfacet
  facet normal 0 0 1
    outer loop
      vertex 68.0866 4.6194 90
      vertex 65.3806 1.91342 90
      vertex 70 5 90
    endloop
  endfacet
  facet normal 0 0 1
    outer loop
      vertex 66.4645 3.53553 90
      vertex 65.3806 1.91342 90
      vertex 68.0866 4.6194 90
    endloop
  endfacet
endsolid OpenSCAD_Model
