solid OpenSCAD_Model
  facet normal -1 0 0
    outer loop
      vertex 0 0 0
      vertex 0 0 150
      vertex 0 70 0
    endloop
  endfacet
  facet normal -1 0 0
    outer loop
      vertex 0 70 0
      vertex 0 0 150
      vertex 0 70 150
    endloop
  endfacet
  facet normal 0 -1 0
    outer loop
      vertex 0 0 150
      vertex 0 0 0
      vertex 70 0 0
    endloop
  endfacet
  facet normal 0 -1 0
    outer loop
      vertex 70 0 150
      vertex 0 0 150
      vertex 70 0 0
    endloop
  endfacet
  facet normal 0 0 -1
    outer loop
      vertex 0 0 0
      vertex 0 70 0
      vertex 70 0 0
    endloop
  endfacet
  facet normal 0 0 -1
    outer loop
      vertex 70 0 0
      vertex 0 70 0
      vertex 70 70 0
    endloop
  endfacet
  facet normal 0 1 0
    outer loop
      vertex 0 70 0
      vertex 0 70 150
      vertex 70 70 0
    endloop
  endfacet
  facet normal 0 1 0
    outer loop
      vertex 70 70 0
      vertex 0 70 150
      vertex 70 70 150
    endloop
  endfacet
  facet normal 0 0 1
    outer loop
      vertex 5 5 150
      vertex 0 0 150
      vertex 70 0 150
    endloop
  endfacet
  facet normal 0 0 1
    outer loop
      vertex 5 65 150
      vertex 0 70 150
      vertex 5 5 150
    endloop
  endfacet
  facet normal 0 0 1
    outer loop
      vertex 65 5 150
      vertex 5 5 150
      vertex 70 0 150
    endloop
  endfacet
  facet normal 0 0 1
    outer loop
      vertex 0 70 150
      vertex 0 0 150
      vertex 5 5 150
    endloop
  endfacet
  facet normal 0 0 1
    outer loop
      vertex 70 70 150
      vertex 0 70 150
      vertex 5 65 150
    endloop
  endfacet
  facet normal 0 0 1
    outer loop
      vertex 70 70 150
      vertex 65 65 150
      vertex 70 0 150
    endloop
  endfacet
  facet normal 0 0 1
    outer loop
      vertex 70 70 150
      vertex 5 65 150
      vertex 65 65 150
    endloop
  endfacet
  facet normal 0 0 1
    outer loop
      vertex 65 65 150
      vertex 65 5 150
      vertex 70 0 150
    endloop
  endfacet
  facet normal 1 0 0
    outer loop
      vertex 70 0 150
      vertex 70 0 0
      vertex 70 70 0
    endloop
  endfacet
  facet normal 1 0 0
    outer loop
      vertex 70 70 150
      vertex 70 0 150
      vertex 70 70 0
    endloop
  endfacet
  facet normal 1 0 0
    outer loop
      vertex 5 65 150
      vertex 5 32.5 145
      vertex 5 37.5 145
    endloop
  endfacet
  facet normal 1 0 0
    outer loop
      vertex 5 32.5 5
      vertex 5 32.5 145
      vertex 5 5 150
    endloop
  endfacet
  facet normal 1 0 0
    outer loop
      vertex 5 37.5 5
      vertex 5 65 5
      vertex 5 37.5 145
    endloop
  endfacet
  facet normal 1 0 0
    outer loop
      vertex 5 65 5
      vertex 5 65 150
      vertex 5 37.5 145
    endloop
  endfacet
  facet normal 1 0 0
    outer loop
      vertex 5 65 150
      vertex 5 5 150
      vertex 5 32.5 145
    endloop
  endfacet
  facet normal 1 0 0
    outer loop
      vertex 5 5 150
      vertex 5 5 5
      vertex 5 32.5 5
    endloop
  endfacet
  facet normal 0 1 0
    outer loop
      vertex 65 5 150
      vertex 65 5 5
      vertex 37.5 5 145
    endloop
  endfacet
  facet normal 0 1 0
    outer loop
      vertex 65 5 150
      vertex 37.5 5 145
      vertex 5 5 150
    endloop
  endfacet
  facet normal 0 1 0
    outer loop
      vertex 32.5 5 5
      vertex 5 5 150
      vertex 32.5 5 145
    endloop
  endfacet
  facet normal 0 1 0
    outer loop
      vertex 37.5 5 145
      vertex 32.5 5 145
      vertex 5 5 150
    endloop
  endfacet
  facet normal 0 1 0
    outer loop
      vertex 5 5 150
      vertex 32.5 5 5
      vertex 5 5 5
    endloop
  endfacet
  facet normal 0 1 0
    outer loop
      vertex 37.5 5 145
      vertex 65 5 5
      vertex 37.5 5 5
    endloop
  endfacet
  facet normal -1 0 0
    outer loop
      vertex 65 65 150
      vertex 65 65 5
      vertex 65 37.5 145
    endloop
  endfacet
  facet normal -1 0 0
    outer loop
      vertex 65 65 150
      vertex 65 37.5 145
      vertex 65 5 150
    endloop
  endfacet
  facet normal -1 0 0
    outer loop
      vertex 65 32.5 5
      vertex 65 5 150
      vertex 65 32.5 145
    endloop
  endfacet
  facet normal -1 0 0
    outer loop
      vertex 65 37.5 145
      vertex 65 32.5 145
      vertex 65 5 150
    endloop
  endfacet
  facet normal -1 0 0
    outer loop
      vertex 65 5 150
      vertex 65 32.5 5
      vertex 65 5 5
    endloop
  endfacet
  facet normal -1 0 0
    outer loop
      vertex 65 37.5 145
      vertex 65 65 5
      vertex 65 37.5 5
    endloop
  endfacet
  facet normal 0 -1 0
    outer loop
      vertex 65 65 150
      vertex 32.5 65 145
      vertex 37.5 65 145
    endloop
  endfacet
  facet normal 0 -1 0
    outer loop
      vertex 32.5 65 5
      vertex 32.5 65 145
      vertex 5 65 150
    endloop
  endfacet
  facet normal 0 -1 0
    outer loop
      vertex 37.5 65 5
      vertex 65 65 5
      vertex 37.5 65 145
    endloop
  endfacet
  facet normal 0 -1 0
    outer loop
      vertex 65 65 5
      vertex 65 65 150
      vertex 37.5 65 145
    endloop
  endfacet
  facet normal 0 -1 0
    outer loop
      vertex 65 65 150
      vertex 5 65 150
      vertex 32.5 65 145
    endloop
  endfacet
  facet normal 0 -1 0
    outer loop
      vertex 5 65 150
      vertex 5 65 5
      vertex 32.5 65 5
    endloop
  endfacet
  facet normal 0 -1 0
    outer loop
      vertex 5 32.5 145
      vertex 5 32.5 5
      vertex 32.5 32.5 5
    endloop
  endfacet
  facet normal 0 -1 0
    outer loop
      vertex 32.5 32.5 145
      vertex 5 32.5 145
      vertex 32.5 32.5 5
    endloop
  endfacet
  facet normal 0 0 1
    outer loop
      vertex 32.5 5 5
      vertex 32.5 32.5 5
      vertex 5 32.5 5
    endloop
  endfacet
  facet normal 0 0 1
    outer loop
      vertex 5 5 5
      vertex 32.5 5 5
      vertex 5 32.5 5
    endloop
  endfacet
  facet normal 0 0 1
    outer loop
      vertex 32.5 37.5 5
      vertex 32.5 65 5
      vertex 5 65 5
    endloop
  endfacet
  facet normal 0 0 1
    outer loop
      vertex 5 37.5 5
      vertex 32.5 37.5 5
      vertex 5 65 5
    endloop
  endfacet
  facet normal 0 1 0
    outer loop
      vertex 5 37.5 5
      vertex 5 37.5 145
      vertex 32.5 37.5 5
    endloop
  endfacet
  facet normal 0 1 0
    outer loop
      vertex 32.5 37.5 5
      vertex 5 37.5 145
      vertex 32.5 37.5 145
    endloop
  endfacet
  facet normal 0 0 1
    outer loop
      vertex 5 37.5 145
      vertex 5 32.5 145
      vertex 32.5 32.5 145
    endloop
  endfacet
  facet normal 0 0 1
    outer loop
      vertex 37.5 32.5 145
      vertex 5 37.5 145
      vertex 32.5 32.5 145
    endloop
  endfacet
  facet normal 0 0 1
    outer loop
      vertex 32.5 5 145
      vertex 37.5 5 145
      vertex 32.5 32.5 145
    endloop
  endfacet
  facet normal 0 0 1
    outer loop
      vertex 37.5 5 145
      vertex 37.5 32.5 145
      vertex 32.5 32.5 145
    endloop
  endfacet
  facet normal 0 0 1
    outer loop
      vertex 37.5 32.5 145
      vertex 65 32.5 145
      vertex 5 37.5 145
    endloop
  endfacet
  facet normal 0 0 1
    outer loop
      vertex 65 32.5 145
      vertex 37.5 37.5 145
      vertex 32.5 37.5 145
    endloop
  endfacet
  facet normal 0 0 1
    outer loop
      vertex 65 32.5 145
      vertex 65 37.5 145
      vertex 37.5 37.5 145
    endloop
  endfacet
  facet normal 0 0 1
    outer loop
      vertex 65 32.5 145
      vertex 32.5 37.5 145
      vertex 5 37.5 145
    endloop
  endfacet
  facet normal 0 0 1
    outer loop
      vertex 37.5 37.5 145
      vertex 37.5 65 145
      vertex 32.5 37.5 145
    endloop
  endfacet
  facet normal 0 0 1
    outer loop
      vertex 32.5 65 145
      vertex 32.5 37.5 145
      vertex 37.5 65 145
    endloop
  endfacet
  facet normal -1 0 0
    outer loop
      vertex 32.5 5 5
      vertex 32.5 5 145
      vertex 32.5 32.5 5
    endloop
  endfacet
  facet normal -1 0 0
    outer loop
      vertex 32.5 32.5 5
      vertex 32.5 5 145
      vertex 32.5 32.5 145
    endloop
  endfacet
  facet normal 1 0 0
    outer loop
      vertex 37.5 5 145
      vertex 37.5 5 5
      vertex 37.5 32.5 5
    endloop
  endfacet
  facet normal 1 0 0
    outer loop
      vertex 37.5 32.5 145
      vertex 37.5 5 145
      vertex 37.5 32.5 5
    endloop
  endfacet
  facet normal 0 0 1
    outer loop
      vertex 65 5 5
      vertex 65 32.5 5
      vertex 37.5 32.5 5
    endloop
  endfacet
  facet normal 0 0 1
    outer loop
      vertex 37.5 5 5
      vertex 65 5 5
      vertex 37.5 32.5 5
    endloop
  endfacet
  facet normal 0 -1 0
    outer loop
      vertex 37.5 32.5 145
      vertex 37.5 32.5 5
      vertex 65 32.5 5
    endloop
  endfacet
  facet normal 0 -1 0
    outer loop
      vertex 65 32.5 145
      vertex 37.5 32.5 145
      vertex 65 32.5 5
    endloop
  endfacet
  facet normal 0 1 0
    outer loop
      vertex 37.5 37.5 5
      vertex 37.5 37.5 145
      vertex 65 37.5 5
    endloop
  endfacet
  facet normal 0 1 0
    outer loop
      vertex 65 37.5 5
      vertex 37.5 37.5 145
      vertex 65 37.5 145
    endloop
  endfacet
  facet normal 0 0 1
    outer loop
      vertex 65 37.5 5
      vertex 65 65 5
      vertex 37.5 65 5
    endloop
  endfacet
  facet normal 0 0 1
    outer loop
      vertex 37.5 37.5 5
      vertex 65 37.5 5
      vertex 37.5 65 5
    endloop
  endfacet
  facet normal -1 0 0
    outer loop
      vertex 32.5 37.5 5
      vertex 32.5 37.5 145
      vertex 32.5 65 5
    endloop
  endfacet
  facet normal -1 0 0
    outer loop
      vertex 32.5 65 5
      vertex 32.5 37.5 145
      vertex 32.5 65 145
    endloop
  endfacet
  facet normal 1 0 0
    outer loop
      vertex 37.5 37.5 145
      vertex 37.5 37.5 5
      vertex 37.5 65 5
    endloop
  endfacet
  facet normal 1 0 0
    outer loop
      vertex 37.5 65 145
      vertex 37.5 37.5 145
      vertex 37.5 65 5
    endloop
  endfacet
endsolid OpenSCAD_Model
