solid OpenSCAD_Model
  facet normal -1 0 0
    outer loop
      vertex 0 0 0
      vertex 0 0 20
      vertex 0 80 0
    endloop
  endfacet
  facet normal -1 0 0
    outer loop
      vertex 0 80 0
      vertex 0 0 20
      vertex 0 80 20
    endloop
  endfacet
  facet normal 0 -1 0
    outer loop
      vertex 0 0 20
      vertex 0 0 0
      vertex 60 0 0
    endloop
  endfacet
  facet normal 0 -1 0
    outer loop
      vertex 60 0 20
      vertex 0 0 20
      vertex 60 0 0
    endloop
  endfacet
  facet normal 0 0 -1
    outer loop
      vertex 0 0 0
      vertex 0 80 0
      vertex 60 0 0
    endloop
  endfacet
  facet normal 0 0 -1
    outer loop
      vertex 60 0 0
      vertex 0 80 0
      vertex 60 80 0
    endloop
  endfacet
  facet normal 0 1 0
    outer loop
      vertex 0 80 0
      vertex 0 80 20
      vertex 60 80 0
    endloop
  endfacet
  facet normal 0 1 0
    outer loop
      vertex 60 80 0
      vertex 0 80 20
      vertex 60 80 20
    endloop
  endfacet
  facet normal 0 0 1
    outer loop
      vertex 2 2 20
      vertex 0 0 20
      vertex 60 0 20
    endloop
  endfacet
  facet normal 0 0 1
    outer loop
      vertex 58 2 20
      vertex 2 2 20
      vertex 60 0 20
    endloop
  endfacet
  facet normal 0 0 1
    outer loop
      vertex 0 80 20
      vertex 0 0 20
      vertex 2 2 20
    endloop
  endfacet
  facet normal 0 0 1
    outer loop
      vertex 60 80 20
      vertex 0 80 20
      vertex 2 78 20
    endloop
  endfacet
  facet normal 0 0 1
    outer loop
      vertex 60 80 20
      vertex 58 78 20
      vertex 60 0 20
    endloop
  endfacet
  facet normal 0 0 1
    outer loop
      vertex 60 80 20
      vertex 2 78 20
      vertex 58 78 20
    endloop
  endfacet
  facet normal 0 0 1
    outer loop
      vertex 58 78 20
      vertex 58 2 20
      vertex 60 0 20
    endloop
  endfacet
  facet normal 0 0 1
    outer loop
      vertex 2 2 20
      vertex 2 78 20
      vertex 0 80 20
    endloop
  endfacet
  facet normal 1 0 0
    outer loop
      vertex 60 0 20
      vertex 60 0 0
      vertex 60 80 0
    endloop
  endfacet
  facet normal 1 0 0
    outer loop
      vertex 60 80 20
      vertex 60 0 20
      vertex 60 80 0
    endloop
  endfacet
  facet normal 1 0 0
    outer loop
      vertex 2 78 20
      vertex 2 39 18
      vertex 2 41 18
    endloop
  endfacet
  facet normal 1 0 0
    outer loop
      vertex 2 39 2
      vertex 2 39 18
      vertex 2 2 20
    endloop
  endfacet
  facet normal 1 0 0
    outer loop
      vertex 2 41 2
      vertex 2 78 2
      vertex 2 41 18
    endloop
  endfacet
  facet normal 1 0 0
    outer loop
      vertex 2 78 2
      vertex 2 78 20
      vertex 2 41 18
    endloop
  endfacet
  facet normal 1 0 0
    outer loop
      vertex 2 78 20
      vertex 2 2 20
      vertex 2 39 18
    endloop
  endfacet
  facet normal 1 0 0
    outer loop
      vertex 2 2 20
      vertex 2 2 2
      vertex 2 39 2
    endloop
  endfacet
  facet normal 0 1 0
    outer loop
      vertex 58 2 20
      vertex 58 2 2
      vertex 31 2 18
    endloop
  endfacet
  facet normal 0 1 0
    outer loop
      vertex 58 2 20
      vertex 31 2 18
      vertex 2 2 20
    endloop
  endfacet
  facet normal 0 1 0
    outer loop
      vertex 29 2 2
      vertex 2 2 20
      vertex 29 2 18
    endloop
  endfacet
  facet normal 0 1 0
    outer loop
      vertex 31 2 18
      vertex 29 2 18
      vertex 2 2 20
    endloop
  endfacet
  facet normal 0 1 0
    outer loop
      vertex 2 2 20
      vertex 29 2 2
      vertex 2 2 2
    endloop
  endfacet
  facet normal 0 1 0
    outer loop
      vertex 31 2 18
      vertex 58 2 2
      vertex 31 2 2
    endloop
  endfacet
  facet normal -1 0 0
    outer loop
      vertex 58 78 20
      vertex 58 78 2
      vertex 58 2 20
    endloop
  endfacet
  facet normal -1 0 0
    outer loop
      vertex 58 2 20
      vertex 58 78 2
      vertex 58 2 2
    endloop
  endfacet
  facet normal 0 -1 0
    outer loop
      vertex 58 78 20
      vertex 29 78 18
      vertex 31 78 18
    endloop
  endfacet
  facet normal 0 -1 0
    outer loop
      vertex 29 78 2
      vertex 29 78 18
      vertex 2 78 20
    endloop
  endfacet
  facet normal 0 -1 0
    outer loop
      vertex 31 78 2
      vertex 58 78 2
      vertex 31 78 18
    endloop
  endfacet
  facet normal 0 -1 0
    outer loop
      vertex 58 78 2
      vertex 58 78 20
      vertex 31 78 18
    endloop
  endfacet
  facet normal 0 -1 0
    outer loop
      vertex 58 78 20
      vertex 2 78 20
      vertex 29 78 18
    endloop
  endfacet
  facet normal 0 -1 0
    outer loop
      vertex 2 78 20
      vertex 2 78 2
      vertex 29 78 2
    endloop
  endfacet
  facet normal 0 -1 0
    outer loop
      vertex 2 39 18
      vertex 2 39 2
      vertex 29 39 2
    endloop
  endfacet
  facet normal 0 -1 0
    outer loop
      vertex 29 39 18
      vertex 2 39 18
      vertex 29 39 2
    endloop
  endfacet
  facet normal 0 0 1
    outer loop
      vertex 29 2 2
      vertex 29 39 2
      vertex 2 39 2
    endloop
  endfacet
  facet normal 0 0 1
    outer loop
      vertex 2 2 2
      vertex 29 2 2
      vertex 2 39 2
    endloop
  endfacet
  facet normal 0 0 1
    outer loop
      vertex 29 41 2
      vertex 29 78 2
      vertex 2 78 2
    endloop
  endfacet
  facet normal 0 0 1
    outer loop
      vertex 2 41 2
      vertex 29 41 2
      vertex 2 78 2
    endloop
  endfacet
  facet normal 0 1 0
    outer loop
      vertex 2 41 2
      vertex 2 41 18
      vertex 29 41 2
    endloop
  endfacet
  facet normal 0 1 0
    outer loop
      vertex 29 41 2
      vertex 2 41 18
      vertex 29 41 18
    endloop
  endfacet
  facet normal 0 0 1
    outer loop
      vertex 2 41 18
      vertex 2 39 18
      vertex 29 39 18
    endloop
  endfacet
  facet normal 0 0 1
    outer loop
      vertex 29 41 18
      vertex 2 41 18
      vertex 29 39 18
    endloop
  endfacet
  facet normal 0 0 1
    outer loop
      vertex 29 2 18
      vertex 31 2 18
      vertex 29 39 18
    endloop
  endfacet
  facet normal 0 0 1
    outer loop
      vertex 31 2 18
      vertex 31 78 18
      vertex 29 39 18
    endloop
  endfacet
  facet normal 0 0 1
    outer loop
      vertex 31 78 18
      vertex 29 41 18
      vertex 29 39 18
    endloop
  endfacet
  facet normal 0 0 1
    outer loop
      vertex 29 78 18
      vertex 29 41 18
      vertex 31 78 18
    endloop
  endfacet
  facet normal -1 0 0
    outer loop
      vertex 29 2 2
      vertex 29 2 18
      vertex 29 39 2
    endloop
  endfacet
  facet normal -1 0 0
    outer loop
      vertex 29 39 2
      vertex 29 2 18
      vertex 29 39 18
    endloop
  endfacet
  facet normal 1 0 0
    outer loop
      vertex 31 2 18
      vertex 31 2 2
      vertex 31 78 2
    endloop
  endfacet
  facet normal 1 0 0
    outer loop
      vertex 31 78 18
      vertex 31 2 18
      vertex 31 78 2
    endloop
  endfacet
  facet normal 0 0 1
    outer loop
      vertex 58 2 2
      vertex 58 78 2
      vertex 31 78 2
    endloop
  endfacet
  facet normal 0 0 1
    outer loop
      vertex 31 2 2
      vertex 58 2 2
      vertex 31 78 2
    endloop
  endfacet
  facet normal -1 0 0
    outer loop
      vertex 29 41 2
      vertex 29 41 18
      vertex 29 78 2
    endloop
  endfacet
  facet normal -1 0 0
    outer loop
      vertex 29 78 2
      vertex 29 41 18
      vertex 29 78 18
    endloop
  endfacet
  facet normal -1 0 0
    outer loop
      vertex 70 0 0
      vertex 70 0 2
      vertex 70 80 0
    endloop
  endfacet
  facet normal -1 0 0
    outer loop
      vertex 70 80 0
      vertex 70 0 2
      vertex 70 80 2
    endloop
  endfacet
  facet normal 0 -1 0
    outer loop
      vertex 70 0 2
      vertex 70 0 0
      vertex 130 0 0
    endloop
  endfacet
  facet normal 0 -1 0
    outer loop
      vertex 130 0 2
      vertex 70 0 2
      vertex 130 0 0
    endloop
  endfacet
  facet normal 0 0 -1
    outer loop
      vertex 70 0 0
      vertex 70 80 0
      vertex 130 0 0
    endloop
  endfacet
  facet normal 0 0 -1
    outer loop
      vertex 130 0 0
      vertex 70 80 0
      vertex 130 80 0
    endloop
  endfacet
  facet normal 0 1 0
    outer loop
      vertex 70 80 0
      vertex 70 80 2
      vertex 130 80 0
    endloop
  endfacet
  facet normal 0 1 0
    outer loop
      vertex 130 80 0
      vertex 70 80 2
      vertex 130 80 2
    endloop
  endfacet
  facet normal 0 0 1
    outer loop
      vertex 72 2 2
      vertex 70 0 2
      vertex 130 0 2
    endloop
  endfacet
  facet normal 0 0 1
    outer loop
      vertex 128 2 2
      vertex 72 2 2
      vertex 130 0 2
    endloop
  endfacet
  facet normal 0 0 1
    outer loop
      vertex 70 80 2
      vertex 70 0 2
      vertex 72 2 2
    endloop
  endfacet
  facet normal 0 0 1
    outer loop
      vertex 130 80 2
      vertex 70 80 2
      vertex 72 78 2
    endloop
  endfacet
  facet normal 0 0 1
    outer loop
      vertex 130 80 2
      vertex 128 78 2
      vertex 130 0 2
    endloop
  endfacet
  facet normal 0 0 1
    outer loop
      vertex 130 80 2
      vertex 72 78 2
      vertex 128 78 2
    endloop
  endfacet
  facet normal 0 0 1
    outer loop
      vertex 128 78 2
      vertex 128 2 2
      vertex 130 0 2
    endloop
  endfacet
  facet normal 0 0 1
    outer loop
      vertex 72 2 2
      vertex 72 78 2
      vertex 70 80 2
    endloop
  endfacet
  facet normal 1 0 0
    outer loop
      vertex 130 0 2
      vertex 130 0 0
      vertex 130 80 0
    endloop
  endfacet
  facet normal 1 0 0
    outer loop
      vertex 130 80 2
      vertex 130 0 2
      vertex 130 80 0
    endloop
  endfacet
  facet normal -1 0 0
    outer loop
      vertex 72 2 2
      vertex 72 2 4
      vertex 72 78 2
    endloop
  endfacet
  facet normal -1 0 0
    outer loop
      vertex 72 78 2
      vertex 72 2 4
      vertex 72 78 4
    endloop
  endfacet
  facet normal 0 -1 0
    outer loop
      vertex 72 2 4
      vertex 72 2 2
      vertex 128 2 2
    endloop
  endfacet
  facet normal 0 -1 0
    outer loop
      vertex 128 2 4
      vertex 72 2 4
      vertex 128 2 2
    endloop
  endfacet
  facet normal 1 0 0
    outer loop
      vertex 128 2 4
      vertex 128 2 2
      vertex 128 78 2
    endloop
  endfacet
  facet normal 1 0 0
    outer loop
      vertex 128 78 4
      vertex 128 2 4
      vertex 128 78 2
    endloop
  endfacet
  facet normal 0 1 0
    outer loop
      vertex 72 78 2
      vertex 72 78 4
      vertex 128 78 2
    endloop
  endfacet
  facet normal 0 1 0
    outer loop
      vertex 128 78 2
      vertex 72 78 4
      vertex 128 78 4
    endloop
  endfacet
  facet normal 0 0 1
    outer loop
      vertex 72 78 4
      vertex 72 2 4
      vertex 128 2 4
    endloop
  endfacet
  facet normal 0 0 1
    outer loop
      vertex 128 78 4
      vertex 72 78 4
      vertex 128 2 4
    endloop
  endfacet
endsolid OpenSCAD_Model
