solid OpenSCAD_Model
  facet normal -1 0 0
    outer loop
      vertex 0 0 0
      vertex 0 0 30
      vertex 0 70 0
    endloop
  endfacet
  facet normal -1 0 0
    outer loop
      vertex 0 70 0
      vertex 0 0 30
      vertex 0 70 30
    endloop
  endfacet
  facet normal 0 -1 0
    outer loop
      vertex 0 0 30
      vertex 0 0 0
      vertex 180 0 0
    endloop
  endfacet
  facet normal 0 -1 0
    outer loop
      vertex 180 0 30
      vertex 0 0 30
      vertex 180 0 0
    endloop
  endfacet
  facet normal 0 0 -1
    outer loop
      vertex 0 0 0
      vertex 0 70 0
      vertex 180 0 0
    endloop
  endfacet
  facet normal 0 0 -1
    outer loop
      vertex 180 0 0
      vertex 0 70 0
      vertex 180 70 0
    endloop
  endfacet
  facet normal 0 1 0
    outer loop
      vertex 0 70 0
      vertex 0 70 30
      vertex 180 70 0
    endloop
  endfacet
  facet normal 0 1 0
    outer loop
      vertex 180 70 0
      vertex 0 70 30
      vertex 180 70 30
    endloop
  endfacet
  facet normal 0 0 1
    outer loop
      vertex 5 5 30
      vertex 0 0 30
      vertex 180 0 30
    endloop
  endfacet
  facet normal 0 0 1
    outer loop
      vertex 0 70 30
      vertex 0 0 30
      vertex 5 5 30
    endloop
  endfacet
  facet normal 0 0 1
    outer loop
      vertex 5 65 30
      vertex 175 65 30
      vertex 0 70 30
    endloop
  endfacet
  facet normal 0 0 1
    outer loop
      vertex 0 70 30
      vertex 5 5 30
      vertex 5 65 30
    endloop
  endfacet
  facet normal 0 0 1
    outer loop
      vertex 180 70 30
      vertex 175 65 30
      vertex 180 0 30
    endloop
  endfacet
  facet normal 0 0 1
    outer loop
      vertex 180 70 30
      vertex 0 70 30
      vertex 175 65 30
    endloop
  endfacet
  facet normal 0 0 1
    outer loop
      vertex 175 65 30
      vertex 175 5 30
      vertex 180 0 30
    endloop
  endfacet
  facet normal 0 0 1
    outer loop
      vertex 175 5 30
      vertex 5 5 30
      vertex 180 0 30
    endloop
  endfacet
  facet normal 1 0 0
    outer loop
      vertex 180 0 30
      vertex 180 0 0
      vertex 180 70 0
    endloop
  endfacet
  facet normal 1 0 0
    outer loop
      vertex 180 70 30
      vertex 180 0 30
      vertex 180 70 0
    endloop
  endfacet
  facet normal 1 0 0
    outer loop
      vertex 5 65 5
      vertex 5 65 30
      vertex 5 5 30
    endloop
  endfacet
  facet normal 1 0 0
    outer loop
      vertex 5 5 5
      vertex 5 65 5
      vertex 5 5 30
    endloop
  endfacet
  facet normal 0 1 0
    outer loop
      vertex 175 5 30
      vertex 175 5 5
      vertex 150 5 25
    endloop
  endfacet
  facet normal 0 1 0
    outer loop
      vertex 175 5 30
      vertex 150 5 25
      vertex 5 5 30
    endloop
  endfacet
  facet normal 0 1 0
    outer loop
      vertex 145 5 5
      vertex 5 5 30
      vertex 145 5 25
    endloop
  endfacet
  facet normal 0 1 0
    outer loop
      vertex 150 5 25
      vertex 145 5 25
      vertex 5 5 30
    endloop
  endfacet
  facet normal 0 1 0
    outer loop
      vertex 5 5 30
      vertex 145 5 5
      vertex 5 5 5
    endloop
  endfacet
  facet normal 0 1 0
    outer loop
      vertex 150 5 25
      vertex 175 5 5
      vertex 150 5 5
    endloop
  endfacet
  facet normal -1 0 0
    outer loop
      vertex 175 65 30
      vertex 175 65 5
      vertex 175 5 30
    endloop
  endfacet
  facet normal -1 0 0
    outer loop
      vertex 175 5 30
      vertex 175 65 5
      vertex 175 5 5
    endloop
  endfacet
  facet normal 0 -1 0
    outer loop
      vertex 175 65 30
      vertex 145 65 25
      vertex 150 65 25
    endloop
  endfacet
  facet normal 0 -1 0
    outer loop
      vertex 145 65 5
      vertex 145 65 25
      vertex 5 65 30
    endloop
  endfacet
  facet normal 0 -1 0
    outer loop
      vertex 150 65 5
      vertex 175 65 5
      vertex 150 65 25
    endloop
  endfacet
  facet normal 0 -1 0
    outer loop
      vertex 175 65 5
      vertex 175 65 30
      vertex 150 65 25
    endloop
  endfacet
  facet normal 0 -1 0
    outer loop
      vertex 175 65 30
      vertex 5 65 30
      vertex 145 65 25
    endloop
  endfacet
  facet normal 0 -1 0
    outer loop
      vertex 5 65 30
      vertex 5 65 5
      vertex 145 65 5
    endloop
  endfacet
  facet normal 0 0 1
    outer loop
      vertex 145 5 5
      vertex 145 65 5
      vertex 5 65 5
    endloop
  endfacet
  facet normal 0 0 1
    outer loop
      vertex 5 5 5
      vertex 145 5 5
      vertex 5 65 5
    endloop
  endfacet
  facet normal -1 0 0
    outer loop
      vertex 145 5 5
      vertex 145 5 25
      vertex 145 65 5
    endloop
  endfacet
  facet normal -1 0 0
    outer loop
      vertex 145 65 5
      vertex 145 5 25
      vertex 145 65 25
    endloop
  endfacet
  facet normal 0 0 1
    outer loop
      vertex 145 65 25
      vertex 145 5 25
      vertex 150 5 25
    endloop
  endfacet
  facet normal 0 0 1
    outer loop
      vertex 150 65 25
      vertex 145 65 25
      vertex 150 5 25
    endloop
  endfacet
  facet normal 1 0 0
    outer loop
      vertex 150 5 25
      vertex 150 5 5
      vertex 150 65 5
    endloop
  endfacet
  facet normal 1 0 0
    outer loop
      vertex 150 65 25
      vertex 150 5 25
      vertex 150 65 5
    endloop
  endfacet
  facet normal 0 0 1
    outer loop
      vertex 175 5 5
      vertex 175 65 5
      vertex 150 65 5
    endloop
  endfacet
  facet normal 0 0 1
    outer loop
      vertex 150 5 5
      vertex 175 5 5
      vertex 150 65 5
    endloop
  endfacet
  facet normal -1 0 0
    outer loop
      vertex 190 0 0
      vertex 190 0 5
      vertex 190 70 0
    endloop
  endfacet
  facet normal -1 0 0
    outer loop
      vertex 190 70 0
      vertex 190 0 5
      vertex 190 70 5
    endloop
  endfacet
  facet normal 0 -1 0
    outer loop
      vertex 190 0 5
      vertex 190 0 0
      vertex 370 0 0
    endloop
  endfacet
  facet normal 0 -1 0
    outer loop
      vertex 370 0 5
      vertex 190 0 5
      vertex 370 0 0
    endloop
  endfacet
  facet normal 0 0 -1
    outer loop
      vertex 190 0 0
      vertex 190 70 0
      vertex 370 0 0
    endloop
  endfacet
  facet normal 0 0 -1
    outer loop
      vertex 370 0 0
      vertex 190 70 0
      vertex 370 70 0
    endloop
  endfacet
  facet normal 0 1 0
    outer loop
      vertex 190 70 0
      vertex 190 70 5
      vertex 370 70 0
    endloop
  endfacet
  facet normal 0 1 0
    outer loop
      vertex 370 70 0
      vertex 190 70 5
      vertex 370 70 5
    endloop
  endfacet
  facet normal 0 0 1
    outer loop
      vertex 195 5 5
      vertex 190 0 5
      vertex 370 0 5
    endloop
  endfacet
  facet normal 0 0 1
    outer loop
      vertex 190 70 5
      vertex 190 0 5
      vertex 195 5 5
    endloop
  endfacet
  facet normal 0 0 1
    outer loop
      vertex 195 65 5
      vertex 365 65 5
      vertex 190 70 5
    endloop
  endfacet
  facet normal 0 0 1
    outer loop
      vertex 190 70 5
      vertex 195 5 5
      vertex 195 65 5
    endloop
  endfacet
  facet normal 0 0 1
    outer loop
      vertex 370 70 5
      vertex 365 65 5
      vertex 370 0 5
    endloop
  endfacet
  facet normal 0 0 1
    outer loop
      vertex 370 70 5
      vertex 190 70 5
      vertex 365 65 5
    endloop
  endfacet
  facet normal 0 0 1
    outer loop
      vertex 365 65 5
      vertex 365 5 5
      vertex 370 0 5
    endloop
  endfacet
  facet normal 0 0 1
    outer loop
      vertex 365 5 5
      vertex 195 5 5
      vertex 370 0 5
    endloop
  endfacet
  facet normal 1 0 0
    outer loop
      vertex 370 0 5
      vertex 370 0 0
      vertex 370 70 0
    endloop
  endfacet
  facet normal 1 0 0
    outer loop
      vertex 370 70 5
      vertex 370 0 5
      vertex 370 70 0
    endloop
  endfacet
  facet normal -1 0 0
    outer loop
      vertex 195 5 5
      vertex 195 5 10
      vertex 195 65 5
    endloop
  endfacet
  facet normal -1 0 0
    outer loop
      vertex 195 65 5
      vertex 195 5 10
      vertex 195 65 10
    endloop
  endfacet
  facet normal 0 -1 0
    outer loop
      vertex 195 5 10
      vertex 195 5 5
      vertex 365 5 5
    endloop
  endfacet
  facet normal 0 -1 0
    outer loop
      vertex 365 5 10
      vertex 195 5 10
      vertex 365 5 5
    endloop
  endfacet
  facet normal 1 0 0
    outer loop
      vertex 365 5 10
      vertex 365 5 5
      vertex 365 65 5
    endloop
  endfacet
  facet normal 1 0 0
    outer loop
      vertex 365 65 10
      vertex 365 5 10
      vertex 365 65 5
    endloop
  endfacet
  facet normal 0 1 0
    outer loop
      vertex 195 65 5
      vertex 195 65 10
      vertex 365 65 5
    endloop
  endfacet
  facet normal 0 1 0
    outer loop
      vertex 365 65 5
      vertex 195 65 10
      vertex 365 65 10
    endloop
  endfacet
  facet normal 0 0 1
    outer loop
      vertex 195 65 10
      vertex 195 5 10
      vertex 365 5 10
    endloop
  endfacet
  facet normal 0 0 1
    outer loop
      vertex 365 65 10
      vertex 195 65 10
      vertex 365 5 10
    endloop
  endfacet
endsolid OpenSCAD_Model
